<?xml version="1.0" encoding="UTF-8"?>
<svg xmlns="http://www.w3.org/2000/svg" viewBox="0 0 880 1026" width="880" height="1026" role="img" aria-label="Sarah's week">
  <rect width="880" height="1026" fill="#ffffff"/>
  <g>
<text x="440" y="20" font-family="Inter, 'Comic Sans MS', system-ui, sans-serif" font-size="22" font-weight="600" fill="#1e293b" text-anchor="middle" dominant-baseline="hanging"><tspan x="440" dy="0">Sarah's week</tspan></text>
<path d="M109.78 70.25 C109.78 70.25 109.78 70.25 109.78 70.25 M109.78 70.25 C109.78 70.25 109.78 70.25 109.78 70.25 M109.41 78.17 C112.15 78.58 115.30 74.81 119.21 69.37 M108.99 79.00 C113.52 75.92 115.23 72.55 117.73 69.59 M111.13 90.13 C114.73 82.71 120.00 78.71 124.90 68.97 M110.12 89.27 C115.61 82.73 119.08 78.11 125.21 70.49 M111.78 99.06 C112.78 92.71 118.42 86.60 132.22 67.20 M111.36 95.84 C116.31 90.11 121.42 84.30 134.41 71.04 M108.65 103.74 C119.15 93.89 128.00 84.12 142.33 67.64 M109.40 106.34 C123.61 92.33 136.18 77.27 143.01 70.81 M111.94 114.09 C123.13 98.69 141.77 82.64 149.16 68.76 M111.25 114.65 C120.81 103.27 133.81 89.95 150.66 69.82 M109.03 122.87 C131.13 104.74 149.54 83.08 157.70 66.93 M111.27 123.84 C120.43 112.81 130.76 102.47 157.16 70.71 M116.20 124.47 C134.74 106.43 150.98 82.85 167.63 71.81 M117.88 127.53 C132.28 110.09 146.00 93.79 164.54 69.28 M124.69 125.19 C140.87 111.65 149.43 99.25 171.89 72.13 M123.86 126.21 C142.10 104.85 161.51 83.70 173.22 69.65 M130.92 126.54 C146.14 107.21 162.53 93.03 179.56 67.86 M133.97 126.27 C151.69 103.32 173.12 80.06 181.34 69.27 M140.90 124.81 C150.74 116.59 161.15 99.61 188.76 67.77 M140.31 126.04 C158.42 106.16 176.91 85.97 188.77 69.48 M149.68 125.18 C163.25 106.33 180.31 83.89 195.94 67.46 M149.70 126.02 C165.57 107.48 181.30 86.97 196.94 70.66 M156.34 125.28 C166.32 113.07 175.63 102.55 204.77 67.47 M155.50 126.88 C169.59 110.14 183.28 93.59 206.82 69.80 M164.87 123.99 C176.71 111.06 189.07 97.79 210.70 69.91 M164.09 126.02 C175.89 114.17 185.78 101.24 213.55 71.50 M173.41 125.56 C183.95 114.50 196.98 96.13 221.01 68.61 M171.76 124.96 C187.06 108.52 203.56 88.87 221.27 71.54 M178.46 127.86 C197.18 107.61 211.01 88.80 231.22 71.16 M180.43 127.67 C197.54 106.32 216.01 83.58 229.54 70.85 M186.53 126.53 C204.88 103.07 224.25 85.52 239.44 72.24 M188.60 125.60 C199.70 113.10 210.22 99.39 236.90 70.33 M198.87 128.58 C210.19 109.15 226.05 94.08 243.27 77.95 M196.04 127.03 C207.74 112.58 220.84 98.53 239.40 75.87 M206.36 128.57 C213.42 113.09 221.88 104.63 242.28 83.87 M203.10 125.29 C213.02 116.02 224.58 103.56 241.83 83.86 M210.48 124.83 C220.16 116.29 228.62 105.61 237.83 91.15 M212.46 125.09 C219.25 118.67 223.99 113.54 239.59 94.91 M218.15 123.58 C224.95 123.33 228.70 115.80 239.23 105.32 M220.06 127.54 C223.96 120.53 231.71 114.96 239.25 103.16 M225.86 125.34 C230.83 125.65 232.55 119.90 242.79 110.50 M227.49 126.67 C232.26 122.11 234.54 120.23 242.02 110.16 M235.70 125.70 C237.60 124.20 239.16 122.80 240.80 120.80 M236.29 126.31 C237.59 124.57 239.55 122.63 241.17 120.25" stroke="#ccfbf1" stroke-width="1" fill="none" stroke-linecap="round"/>
      <path d="M107.37 71.19 C136.48 68.90 162.21 68.58 242.26 71.02 M110.96 71.21 C158.37 70.45 207.71 70.11 238.66 69.40 M237.54 71.14 C239.86 87.19 240.18 108.01 239.91 128.49 M239.97 69.90 C239.69 83.42 240.46 98.66 239.00 126.83 M242.60 123.68 C201.78 124.74 163.29 124.65 107.61 126.10 M239.48 126.17 C202.55 127.16 166.00 127.53 109.84 125.84 M108.15 123.55 C106.88 106.74 109.45 93.08 110.55 71.00 M110.24 124.91 C109.38 106.69 110.16 89.89 108.85 68.63" stroke="#0d9488" stroke-width="1.5" fill="none" stroke-linecap="round" stroke-linejoin="round"/>
<text x="175" y="89" font-family="Inter, 'Comic Sans MS', system-ui, sans-serif" font-size="16" font-weight="600" fill="#0d9488" text-anchor="middle" dominant-baseline="hanging"><tspan x="175" dy="0">Day 0</tspan></text>
<path d="M280.09 69.90 C280.09 69.90 280.09 69.90 280.09 69.90 M280.09 69.90 C280.09 69.90 280.09 69.90 280.09 69.90 M279.17 78.93 C283.51 76.92 285.78 73.16 288.56 70.47 M279.25 79.66 C282.58 76.18 284.68 74.85 288.73 70.61 M278.27 90.83 C284.07 81.99 289.48 76.85 298.06 68.38 M280.92 88.08 C284.92 82.67 288.63 78.83 295.21 70.78 M281.71 95.08 C284.96 88.05 296.81 81.74 303.56 69.17 M279.88 98.81 C285.54 92.57 289.37 85.09 302.87 69.41 M280.71 105.73 C289.36 96.42 302.56 80.71 309.43 72.46 M280.09 108.07 C290.33 95.82 299.41 81.50 312.31 70.55 M277.68 114.05 C294.02 96.73 310.74 80.68 317.12 71.76 M279.96 117.32 C290.28 102.29 300.84 89.53 319.32 70.84 M282.41 123.81 C289.26 111.99 302.87 102.00 328.03 68.00 M279.74 126.35 C289.94 113.32 299.78 100.71 327.76 71.04 M278.71 132.78 C295.94 112.44 316.24 94.70 335.40 70.57 M280.29 132.34 C296.99 113.29 315.75 94.34 335.70 70.90 M280.14 143.21 C304.03 115.09 322.71 91.47 341.30 67.65 M279.98 142.46 C300.47 120.35 323.46 95.48 342.61 70.96 M277.51 150.69 C305.54 124.68 330.28 94.80 350.77 70.25 M279.54 152.32 C304.25 125.56 329.41 96.25 351.86 71.15 M277.79 160.22 C301.99 131.97 326.75 107.16 358.52 67.52 M278.96 161.37 C298.07 140.90 315.66 123.87 358.78 68.85 M281.98 173.33 C295.36 147.93 314.82 127.13 365.48 70.81 M279.07 171.91 C299.27 145.13 322.78 122.10 367.12 71.52 M290.37 168.86 C323.50 133.47 355.08 96.34 373.39 72.72 M289.56 169.29 C307.91 147.92 325.04 128.62 373.89 70.45 M298.26 171.42 C315.98 149.01 334.68 126.51 382.26 70.65 M295.30 171.45 C325.05 138.03 351.57 104.86 383.45 69.28 M303.48 171.10 C329.14 138.91 359.31 109.33 392.88 68.78 M302.98 170.43 C338.05 132.71 369.11 97.70 391.87 69.91 M312.26 168.20 C333.21 146.39 353.58 127.32 401.90 69.85 M311.94 169.40 C338.92 142.03 364.24 112.40 398.79 69.22 M319.85 168.72 C339.99 144.00 363.62 121.31 404.42 71.55 M319.94 171.91 C340.08 147.52 358.73 124.02 405.64 70.25 M327.53 171.43 C362.32 131.19 395.76 88.74 414.42 66.90 M327.55 169.72 C353.49 138.43 379.90 108.65 416.56 70.66 M336.76 172.71 C369.35 135.74 397.08 98.12 422.54 68.70 M335.04 169.35 C368.93 132.41 401.48 94.35 422.63 71.14 M341.45 172.31 C372.45 136.58 399.75 104.23 430.33 67.58 M344.43 170.62 C371.86 136.72 402.03 101.95 430.56 69.26 M350.15 172.55 C377.90 136.87 406.88 103.22 441.61 67.75 M350.76 170.75 C376.16 144.20 398.08 119.99 438.57 70.67 M358.87 170.29 C384.09 142.89 412.27 114.82 448.71 71.22 M361.19 171.11 C390.23 133.38 421.15 99.65 447.78 69.94 M367.66 167.35 C397.09 140.83 426.24 106.07 455.05 70.48 M366.61 170.20 C389.51 146.11 410.90 121.05 455.36 69.16 M378.49 170.66 C404.51 135.32 440.41 95.27 463.73 70.20 M374.56 170.06 C393.44 149.57 411.20 129.31 462.64 70.95 M383.77 169.09 C411.60 141.14 435.70 106.49 469.76 70.50 M383.69 169.35 C413.87 137.39 443.12 100.54 471.57 70.94 M389.01 170.92 C417.48 137.27 447.64 105.21 476.64 71.83 M390.95 170.70 C415.55 141.65 443.30 112.42 478.81 70.34 M399.01 171.37 C436.70 131.41 471.93 88.13 485.40 67.62 M400.16 169.98 C419.84 143.54 441.42 119.21 485.69 69.35 M409.21 171.39 C440.10 135.47 467.93 96.99 497.58 67.81 M406.30 170.29 C435.16 135.91 464.31 104.61 495.60 70.45 M417.58 169.44 C446.96 131.23 480.52 98.53 500.95 67.28 M415.78 170.19 C443.04 142.15 469.05 110.44 503.89 69.93 M421.55 169.10 C457.43 133.43 489.56 96.54 509.49 71.13 M422.30 169.36 C454.26 135.98 484.55 102.31 509.72 71.39 M432.27 168.96 C460.22 134.47 492.07 102.27 521.04 68.82 M432.28 171.76 C460.31 134.74 490.02 97.99 517.14 68.92 M441.17 172.11 C463.16 144.73 483.01 121.49 526.63 68.00 M438.39 170.68 C464.98 140.74 489.96 110.57 527.54 69.16 M447.75 168.60 C470.84 142.72 497.57 117.54 535.39 68.64 M447.24 169.77 C474.99 139.39 499.65 108.63 535.13 68.96 M457.43 169.15 C482.68 136.09 512.43 102.06 541.67 71.48 M456.29 169.85 C479.00 140.98 503.22 115.27 541.61 68.73 M464.56 170.77 C490.81 138.17 520.04 104.40 549.95 68.96 M461.87 170.34 C492.70 137.89 522.89 104.00 548.85 69.75 M470.00 171.15 C494.10 145.52 514.99 118.74 555.50 68.62 M472.68 170.29 C492.38 144.24 516.71 115.85 559.07 71.71 M480.93 167.87 C501.19 146.52 522.53 116.80 566.96 69.06 M478.64 169.85 C507.03 137.44 533.48 106.89 565.24 68.99 M486.34 169.73 C511.32 137.72 543.84 106.03 572.49 70.32 M486.55 171.06 C509.58 145.50 531.67 121.35 573.10 68.84 M495.94 167.99 C529.53 130.46 564.11 88.93 582.48 68.46 M494.61 170.86 C527.38 130.47 562.54 93.54 580.93 69.84 M501.18 168.27 C537.17 130.24 567.38 91.14 590.07 71.57 M502.36 171.37 C521.34 149.03 540.27 127.83 590.32 68.88 M511.91 169.23 C537.34 136.61 568.11 107.27 599.40 70.07 M510.88 169.04 C536.90 139.97 561.54 112.28 596.65 71.41 M519.68 170.22 C543.05 143.87 566.55 117.75 606.18 71.39 M518.29 171.49 C552.44 133.55 586.68 93.88 605.99 69.46 M526.43 168.57 C559.37 132.13 593.32 89.82 611.46 68.43 M525.97 168.97 C558.38 134.98 592.58 96.34 613.85 69.64 M535.88 172.90 C565.10 133.04 595.88 101.62 622.35 70.48 M534.09 170.75 C555.15 147.13 575.48 124.07 622.58 70.19 M540.35 169.80 C574.83 133.73 606.22 98.72 632.11 71.62 M542.43 171.19 C572.54 136.94 600.87 102.72 628.52 69.38 M551.32 170.69 C577.21 134.05 610.56 103.48 640.64 67.94 M551.45 169.32 C567.87 148.66 584.39 128.41 636.80 70.77 M560.95 169.96 C591.02 134.50 624.06 94.54 645.84 70.71 M557.40 171.14 C577.54 147.75 597.85 124.03 645.63 69.25 M566.97 169.41 C591.67 133.62 623.80 103.97 655.50 70.15 M567.36 169.99 C584.65 148.95 605.79 125.14 652.57 70.05 M575.75 168.11 C596.00 148.14 614.21 121.92 661.82 71.05 M574.23 169.36 C601.33 137.41 630.82 103.76 661.21 69.16 M580.07 171.91 C610.69 137.95 636.91 100.74 666.84 71.47 M583.54 170.77 C615.64 132.39 648.28 95.30 670.18 70.56 M592.51 170.31 C613.96 143.64 636.23 117.33 677.06 72.21 M590.68 169.51 C609.45 148.72 628.64 125.83 677.46 68.41 M598.50 170.11 C626.75 137.14 655.10 100.82 686.40 70.49 M597.03 169.52 C622.03 144.65 645.50 119.57 685.75 70.92 M606.50 172.35 C632.60 146.23 655.33 116.18 690.83 71.23 M606.77 170.82 C635.75 135.72 664.98 103.67 693.26 70.34 M614.57 170.51 C637.41 142.84 657.76 120.31 699.41 69.52 M614.54 171.27 C648.99 131.38 680.99 91.77 701.85 69.59 M624.64 168.45 C657.18 134.60 686.35 98.68 707.06 70.56 M622.35 169.85 C641.60 146.83 661.06 125.40 710.85 69.31 M628.22 171.24 C662.42 135.43 694.96 95.78 716.79 72.09 M629.52 169.45 C663.25 131.74 696.12 94.56 716.72 69.30 M640.70 171.28 C673.59 134.58 706.91 97.75 726.33 70.12 M638.89 170.71 C656.17 148.84 674.26 126.76 726.36 69.33 M647.90 172.75 C676.94 133.06 706.84 104.08 733.50 69.39 M646.76 169.22 C666.15 146.16 687.27 124.17 734.37 70.56 M654.53 169.54 C675.98 146.41 695.02 126.67 742.03 70.42 M654.90 169.21 C673.78 147.57 693.06 125.60 741.42 68.97 M664.35 169.71 C691.95 133.42 717.64 100.67 747.77 70.64 M663.21 169.52 C681.26 150.72 699.02 128.55 748.85 69.76 M669.62 170.39 C698.38 136.50 726.75 106.30 758.01 72.01 M670.46 171.50 C699.15 134.42 730.14 100.15 756.96 70.61 M676.11 171.05 C702.73 145.96 722.47 114.90 764.24 72.72 M678.11 170.56 C708.36 135.81 737.34 101.79 765.65 69.46 M683.67 168.97 C705.62 147.67 724.25 124.26 772.62 69.32 M684.89 170.62 C709.16 144.60 729.96 122.03 772.70 70.15 M692.04 168.74 C713.71 140.59 738.79 115.14 779.02 68.90 M694.03 169.13 C722.59 136.37 751.26 102.26 779.60 71.66 M700.63 170.27 C728.71 136.23 757.74 105.33 791.67 70.65 M701.69 169.70 C732.08 136.02 762.92 100.09 790.27 69.89 M712.00 168.99 C737.31 137.52 763.16 105.37 797.24 70.67 M710.27 168.90 C734.06 142.08 760.43 113.69 796.79 70.30 M714.77 171.79 C746.56 136.75 778.79 99.60 803.61 67.72 M716.84 171.70 C741.41 142.29 764.51 116.17 803.82 69.17 M723.08 173.00 C747.53 142.57 770.37 117.26 811.54 68.05 M725.99 170.88 C752.99 136.53 783.33 102.94 811.53 68.93 M734.80 172.23 C762.07 138.64 791.75 102.41 820.53 72.47 M733.14 169.86 C766.66 131.69 797.15 96.68 819.97 71.69 M739.64 170.83 C756.48 152.99 777.43 132.44 817.69 81.68 M742.49 171.51 C758.35 148.42 776.70 129.48 820.69 81.00 M747.89 169.19 C761.47 151.44 778.75 135.75 817.75 90.52 M748.01 169.19 C765.22 152.29 779.76 133.89 821.29 88.48 M759.32 168.82 C777.54 147.76 793.25 129.17 819.35 100.16 M757.02 169.15 C777.98 143.22 800.30 118.29 821.33 99.38 M766.88 172.66 C779.40 156.89 788.45 143.54 818.81 107.37 M765.72 170.60 C784.43 146.82 805.77 124.91 821.79 105.77 M776.04 170.35 C788.23 151.56 799.20 137.47 820.97 114.91 M774.37 171.32 C787.47 154.71 799.72 139.44 821.90 115.88 M783.05 169.12 C792.69 156.48 801.94 142.57 820.38 126.13 M782.31 169.93 C789.82 158.37 799.40 149.98 821.30 124.23 M788.75 167.86 C795.98 159.42 806.83 149.47 817.79 132.92 M789.04 171.44 C798.87 160.39 807.32 149.55 819.62 135.34 M795.90 169.41 C799.88 164.96 805.71 156.96 820.38 142.09 M797.23 170.91 C804.63 159.69 815.90 148.32 820.94 143.27 M803.88 167.62 C810.59 165.74 814.73 160.80 821.70 154.75 M805.86 169.30 C812.36 162.47 817.72 155.94 819.28 152.28 M813.56 169.53 C813.10 167.07 815.34 166.88 819.07 160.69 M812.88 169.62 C814.30 167.88 817.06 166.58 819.63 162.31" stroke="#ffffff" stroke-width="1" fill="none" stroke-linecap="round"/>
      <path d="M279.66 70.41 C392.95 71.19 505.26 72.55 820.01 70.60 M280.01 69.70 C455.21 70.53 631.63 70.58 820.38 70.22 M818.52 69.14 C818.60 94.66 818.27 115.51 817.88 170.59 M819.51 70.91 C820.29 97.26 820.41 122.89 820.22 171.18 M819.25 170.51 C626.32 169.49 430.04 167.48 279.30 170.31 M820.11 170.22 C711.51 167.02 603.19 167.47 280.47 169.85 M277.30 171.10 C278.04 141.85 280.00 109.15 280.27 68.09 M280.18 169.22 C280.91 139.63 281.77 110.91 279.89 68.67" stroke="#334155" stroke-width="1.5" fill="none" stroke-linecap="round" stroke-linejoin="round"/>
<text x="298" y="86" font-family="Inter, 'Comic Sans MS', system-ui, sans-serif" font-size="14" font-weight="400" fill="#1e293b" text-anchor="start" dominant-baseline="hanging"><tspan x="298" dy="0">Charge fails at Stripe. Within a minute Sarah gets the</tspan><tspan x="298" dy="17.5">&quot;could not process your payment&quot; email, a banner</tspan><tspan x="298" dy="17.5">appears on her dashboard, and the &quot;In dunning&quot; list adds her.</tspan></text>
<path d="M109.91 220.10 C109.91 220.10 109.91 220.10 109.91 220.10 M109.91 220.10 C109.91 220.10 109.91 220.10 109.91 220.10 M108.42 230.13 C113.01 227.55 113.07 225.32 118.16 221.35 M110.65 229.16 C113.03 226.59 115.55 223.56 118.19 219.74 M111.17 241.33 C116.20 234.05 118.76 231.20 126.46 222.44 M109.10 239.49 C114.06 232.66 118.18 229.42 126.03 220.10 M111.82 246.50 C118.71 238.26 120.57 231.87 134.40 221.69 M108.58 248.77 C117.61 236.62 127.67 227.66 133.64 221.13 M108.00 256.77 C119.98 242.88 131.49 232.94 141.65 222.23 M111.61 256.05 C117.45 246.05 125.41 235.77 141.12 220.85 M109.85 263.05 C123.98 248.85 138.30 233.37 150.20 219.72 M109.50 266.23 C121.50 253.57 132.04 241.80 150.30 219.62 M111.02 273.78 C121.73 263.03 128.76 253.84 158.53 218.86 M109.04 275.09 C121.67 264.38 130.89 252.44 158.54 221.17 M116.84 279.58 C128.01 264.57 143.75 244.94 164.00 218.36 M112.71 278.42 C131.61 260.97 146.95 239.86 164.89 218.77 M122.02 280.84 C135.86 262.46 144.95 250.31 175.83 219.31 M122.52 278.32 C136.36 261.41 153.87 243.23 174.32 220.02 M131.85 281.93 C152.60 258.55 171.22 235.22 181.49 217.60 M130.07 279.87 C142.14 264.26 156.45 245.65 181.90 220.77 M138.85 278.26 C155.16 255.52 177.07 237.04 187.80 217.83 M138.98 279.33 C150.47 264.07 164.40 247.76 188.31 221.58 M148.60 280.39 C158.37 261.95 174.06 244.28 195.85 217.60 M145.55 279.52 C164.56 257.64 182.26 235.67 198.14 218.62 M151.80 278.47 C168.90 258.70 185.80 243.06 202.85 221.42 M153.82 280.53 C171.54 260.15 187.62 240.50 204.59 220.15 M159.71 278.53 C182.22 254.41 201.10 229.78 213.35 221.94 M160.17 279.35 C173.32 267.52 185.71 252.69 212.86 220.40 M167.21 281.92 C188.65 255.13 207.67 234.86 218.66 219.51 M170.66 278.36 C181.28 266.22 194.55 253.91 222.00 218.82 M180.38 278.66 C194.46 260.71 209.28 243.25 227.15 218.34 M177.76 278.44 C189.57 267.67 199.63 253.76 228.22 220.18 M187.49 281.03 C206.04 257.63 219.21 240.30 235.83 219.90 M185.59 279.94 C198.10 265.75 208.42 254.19 238.02 219.21 M195.45 279.55 C206.60 260.91 221.43 250.35 243.48 220.31 M192.72 280.47 C208.64 260.38 226.66 240.27 243.22 221.51 M200.81 282.12 C211.69 267.42 223.12 259.20 245.61 229.74 M200.64 278.69 C212.37 266.24 225.19 252.63 243.44 231.83 M211.67 279.45 C221.30 266.35 231.00 254.26 244.29 238.34 M210.04 278.61 C218.49 268.77 224.98 260.03 242.99 240.74 M216.46 280.43 C224.74 271.79 232.28 265.71 244.11 248.22 M218.58 278.47 C224.18 271.59 229.91 264.10 243.62 250.62 M224.88 281.25 C233.97 274.62 237.26 264.82 245.26 261.74 M225.08 278.77 C229.48 275.30 235.76 268.22 244.18 259.52 M234.09 280.07 C234.83 275.48 238.91 272.29 243.03 269.00 M233.35 278.84 C237.30 275.29 241.16 271.90 242.69 268.19" stroke="#ccfbf1" stroke-width="1" fill="none" stroke-linecap="round"/>
      <path d="M110.91 220.87 C138.34 217.83 164.20 219.37 237.79 221.96 M109.10 220.08 C147.13 220.64 181.00 221.22 240.42 218.88 M239.51 222.73 C242.83 238.17 241.85 256.32 241.45 274.69 M239.06 219.13 C241.02 235.42 240.49 248.59 238.65 274.72 M239.24 275.25 C210.14 278.40 178.74 279.64 108.89 277.44 M241.09 276.92 C199.63 274.68 159.24 273.75 109.70 275.40 M112.05 275.04 C109.44 260.23 110.79 240.98 109.99 220.77 M110.12 275.53 C109.71 260.64 110.65 246.07 110.93 218.71" stroke="#0d9488" stroke-width="1.5" fill="none" stroke-linecap="round" stroke-linejoin="round"/>
<text x="175" y="231" font-family="Inter, 'Comic Sans MS', system-ui, sans-serif" font-size="16" font-weight="600" fill="#0d9488" text-anchor="middle" dominant-baseline="hanging"><tspan x="175" dy="0">Day 2</tspan><tspan x="175" dy="20">to 3</tspan></text>
<path d="M280.22 219.74 C280.22 219.74 280.22 219.74 280.22 219.74 M280.22 219.74 C280.22 219.74 280.22 219.74 280.22 219.74 M281.52 227.43 C281.45 225.82 284.24 223.30 288.24 218.32 M280.85 229.79 C282.39 226.58 283.75 225.33 288.14 220.00 M278.96 235.68 C286.04 232.76 288.57 228.96 294.03 221.85 M280.56 237.54 C283.35 234.83 287.54 229.77 296.03 220.39 M282.41 247.37 C291.93 238.90 299.60 227.16 305.08 218.81 M280.56 248.19 C287.88 238.76 296.28 228.57 304.24 220.25 M280.06 258.77 C291.24 245.38 307.13 229.47 314.36 221.45 M279.50 257.79 C293.31 243.13 304.13 226.30 313.22 220.60 M281.20 268.61 C294.87 246.90 307.26 231.42 318.15 217.13 M281.01 266.10 C290.98 254.29 301.84 240.31 318.96 220.64 M278.79 274.72 C289.58 264.70 301.52 250.40 329.52 219.17 M280.32 274.80 C291.33 261.93 300.19 250.35 327.00 220.75 M281.32 285.63 C290.09 269.58 303.22 257.02 337.38 222.71 M279.89 283.76 C299.45 262.46 316.52 242.08 336.05 220.40 M280.10 295.84 C302.46 271.32 326.20 243.59 344.58 221.18 M278.46 294.35 C297.33 271.61 313.70 251.90 343.05 219.29 M281.72 302.30 C296.30 282.00 315.60 263.86 352.69 219.99 M278.92 302.15 C296.66 284.29 310.97 266.72 352.43 219.84 M278.36 310.65 C299.51 287.14 323.94 263.23 357.56 217.58 M280.25 311.65 C307.02 281.24 332.46 251.00 358.32 220.95 M277.92 319.92 C307.53 286.29 339.96 248.16 365.39 220.94 M280.35 319.60 C303.11 295.56 328.37 268.51 368.32 219.48 M287.81 319.78 C314.17 293.01 339.56 261.02 377.08 221.07 M287.05 320.68 C309.89 298.18 330.08 272.21 374.46 220.81 M296.39 322.19 C326.42 284.04 361.27 245.56 384.26 217.83 M297.46 321.00 C324.64 288.52 352.76 257.28 382.10 221.73 M306.17 318.09 C322.88 299.93 344.61 279.45 390.52 219.68 M305.16 320.06 C328.61 292.08 352.07 263.85 392.60 219.99 M311.20 321.59 C346.13 282.35 377.13 241.50 398.49 221.87 M311.89 319.94 C342.14 285.46 373.16 248.85 398.13 220.59 M317.84 320.21 C339.40 297.71 359.91 278.14 406.40 219.21 M319.55 320.44 C336.98 299.02 357.11 278.95 406.76 219.13 M326.74 319.38 C357.19 285.67 385.87 252.02 417.61 217.88 M326.87 320.14 C360.86 284.54 393.43 244.49 414.96 219.32 M334.49 322.48 C363.20 289.37 391.74 254.48 423.24 217.58 M335.87 318.99 C367.40 280.79 403.11 242.62 424.42 219.32 M345.92 317.55 C374.70 286.19 401.42 254.52 428.56 217.79 M345.29 320.37 C375.42 281.86 408.04 245.48 431.34 220.91 M351.08 320.78 C380.68 284.04 415.23 244.20 438.26 219.27 M351.90 321.46 C375.23 292.92 399.92 267.72 440.32 221.15 M359.86 318.33 C379.59 300.93 400.75 278.69 449.21 219.12 M360.75 320.95 C389.45 285.29 421.02 249.79 447.98 218.76 M370.78 318.52 C389.49 296.50 407.88 268.55 454.83 221.65 M367.04 320.78 C395.51 289.44 420.52 257.90 453.63 220.81 M377.64 321.63 C396.50 295.16 423.23 268.31 463.59 218.49 M374.76 319.87 C400.54 290.52 427.92 260.28 462.96 220.04 M385.68 318.67 C404.78 297.15 422.01 275.67 472.06 220.01 M384.02 321.26 C407.31 293.31 429.22 264.34 470.21 219.38 M390.29 322.76 C412.02 294.60 439.00 263.68 481.08 220.49 M392.85 320.21 C409.24 295.45 430.82 275.02 479.13 219.49 M401.01 321.29 C419.42 296.51 443.03 269.24 485.65 218.28 M398.10 320.73 C426.60 289.83 454.45 259.86 485.21 220.88 M406.80 320.33 C427.64 295.21 451.00 272.63 493.38 218.39 M408.87 319.91 C432.95 291.76 457.86 263.53 493.28 220.80 M413.54 317.37 C436.71 296.46 455.61 272.46 500.89 220.89 M416.14 319.80 C439.63 293.21 460.33 267.86 503.08 220.00 M423.73 319.53 C454.21 279.52 487.73 242.27 508.96 221.61 M423.51 319.20 C452.25 289.57 478.19 257.26 509.56 220.61 M429.23 321.92 C449.83 300.73 470.22 279.09 519.00 219.24 M430.79 319.92 C463.86 280.96 498.47 241.52 519.72 220.70 M438.77 317.67 C457.94 300.87 474.57 280.41 525.84 221.58 M439.74 318.78 C460.66 295.79 482.02 271.75 524.93 220.60 M448.23 321.06 C479.01 285.19 507.57 252.72 533.97 222.06 M446.08 319.49 C467.96 296.85 490.16 271.44 534.72 220.44 M453.98 318.60 C479.10 292.77 503.14 269.17 544.67 217.24 M456.21 318.84 C481.93 291.24 509.38 259.39 543.54 220.84 M462.41 320.09 C484.30 292.52 511.94 263.69 552.53 219.44 M462.42 321.34 C492.49 285.76 526.20 249.82 550.33 220.33 M471.94 319.09 C495.37 292.10 515.49 270.29 560.59 218.29 M470.38 320.79 C491.43 296.18 513.47 270.57 558.90 218.77 M480.23 317.82 C504.39 295.89 524.16 264.94 567.94 219.54 M480.39 319.61 C514.31 282.39 548.46 241.73 566.22 221.32 M485.36 319.42 C513.77 292.33 533.35 262.83 576.95 219.58 M486.40 319.71 C514.09 289.87 538.93 258.45 574.50 218.58 M496.28 321.04 C528.11 279.95 565.73 242.32 583.20 220.08 M494.14 321.28 C528.07 281.24 562.91 242.80 581.75 219.45 M500.37 322.91 C531.36 286.37 563.35 248.22 591.61 221.11 M503.32 319.24 C538.18 279.59 570.90 241.50 588.79 219.10 M509.86 319.60 C542.59 281.93 575.07 248.50 595.12 218.98 M511.33 319.81 C535.34 290.99 562.94 261.49 598.18 220.68 M521.46 322.16 C555.09 279.07 585.90 244.63 605.02 219.19 M518.27 319.25 C548.34 284.32 579.80 251.84 607.41 220.28 M525.86 319.51 C556.89 284.15 584.20 253.68 612.86 217.48 M527.41 321.28 C549.09 295.08 568.14 271.83 613.46 220.23 M532.26 319.18 C562.47 288.12 586.80 257.80 623.36 220.92 M533.86 320.52 C558.41 289.65 586.54 262.31 622.56 219.47 M544.32 319.97 C564.72 296.20 585.92 270.88 627.55 217.79 M541.84 319.96 C564.13 293.49 586.97 267.18 629.59 221.23 M548.39 322.07 C584.00 280.87 614.55 247.24 637.95 219.25 M550.77 320.11 C575.67 294.80 596.95 267.11 638.56 221.56 M556.69 322.12 C583.02 288.89 610.60 262.04 648.26 219.84 M558.47 319.73 C575.79 299.28 593.30 280.48 645.27 218.87 M564.58 320.31 C591.75 291.76 620.29 262.15 654.05 220.51 M566.73 321.56 C597.39 281.77 631.01 245.00 654.51 220.20 M576.93 321.06 C598.24 291.40 628.18 260.55 660.44 218.93 M573.29 319.03 C592.96 298.15 613.92 276.91 660.44 219.01 M584.50 321.46 C606.70 291.86 630.05 268.23 669.29 221.39 M582.52 319.80 C605.87 294.71 627.08 268.95 669.33 221.07 M587.99 319.41 C617.05 285.65 648.50 257.22 678.01 220.03 M589.50 320.27 C608.03 298.83 626.67 279.73 676.68 220.36 M599.17 322.62 C631.79 284.87 658.97 251.88 686.73 217.75 M598.59 318.88 C619.97 296.59 642.17 272.36 684.90 218.44 M606.56 319.36 C637.38 279.53 672.90 240.80 693.89 220.46 M605.23 320.47 C624.14 296.57 645.37 274.91 693.86 220.89 M615.80 321.09 C640.74 288.98 667.14 261.52 701.12 218.98 M614.49 321.57 C643.98 287.63 670.35 256.42 702.29 219.35 M623.24 320.17 C642.90 296.58 660.36 270.65 708.77 220.54 M622.37 321.35 C649.62 288.96 676.21 258.19 709.54 221.52 M631.58 317.51 C662.81 284.15 689.54 253.10 718.20 222.43 M629.26 319.90 C650.22 296.56 670.70 271.21 717.13 219.41 M636.99 317.65 C669.78 285.51 703.57 250.94 727.31 221.13 M637.56 319.00 C671.86 282.08 703.80 244.04 724.96 219.41 M648.03 319.07 C675.22 285.22 705.93 253.55 735.45 222.18 M646.00 319.41 C680.40 280.77 713.56 242.29 732.63 218.63 M655.97 320.42 C681.90 287.84 709.92 253.41 738.93 221.24 M652.87 321.58 C683.05 283.26 716.58 246.39 741.24 221.03 M662.27 319.49 C692.46 284.37 717.55 253.26 749.47 217.79 M661.70 320.47 C691.72 287.34 717.92 257.30 748.70 220.33 M671.31 319.42 C693.97 291.43 722.97 264.87 759.40 220.41 M670.54 320.19 C696.38 290.67 720.68 263.64 757.58 220.72 M675.72 319.06 C701.49 288.50 730.71 263.51 762.41 219.40 M677.41 320.19 C694.80 301.19 712.94 279.21 764.27 220.81 M688.27 319.16 C712.17 292.31 734.75 263.25 772.45 221.93 M686.37 321.53 C718.71 282.19 749.32 243.50 773.01 219.31 M695.94 322.13 C712.98 297.31 735.53 273.40 782.83 219.11 M692.98 319.65 C726.48 282.43 762.19 241.78 779.43 221.41 M700.69 317.65 C726.94 292.55 754.32 261.76 787.51 219.20 M701.96 320.86 C733.76 283.89 765.07 247.15 789.64 220.23 M709.45 319.81 C735.77 290.18 759.10 260.22 799.45 222.18 M709.39 319.24 C731.64 294.99 754.40 266.65 795.89 219.02 M716.56 320.91 C737.79 298.36 757.65 270.97 806.98 217.54 M718.06 320.62 C751.31 282.81 783.18 247.98 803.61 219.21 M727.35 323.01 C756.85 281.22 789.63 245.44 812.32 222.22 M725.28 319.47 C754.59 283.36 788.18 247.32 813.11 219.16 M731.76 317.98 C761.75 286.88 788.07 256.99 821.45 222.47 M732.14 321.01 C751.17 299.77 768.89 280.16 821.40 219.09 M742.33 320.78 C759.92 297.96 779.52 276.66 821.15 230.17 M740.20 319.94 C761.25 296.34 781.12 274.63 820.80 229.87 M747.76 319.70 C773.13 294.80 797.23 262.81 817.48 239.32 M749.06 320.75 C768.60 295.90 790.58 271.61 821.37 239.29 M759.81 322.71 C779.58 296.38 797.02 272.16 818.82 245.23 M756.35 321.10 C775.23 301.25 791.76 281.43 819.08 248.12 M766.81 318.88 C783.05 299.47 801.70 276.62 819.43 258.29 M763.68 320.86 C784.79 299.42 802.53 277.07 819.36 257.38 M772.37 322.14 C789.10 304.73 805.90 286.15 822.85 268.06 M774.02 319.71 C783.49 309.14 792.84 297.05 820.49 265.96 M782.52 321.48 C792.97 305.57 810.37 286.43 818.32 276.49 M780.86 320.66 C792.43 305.38 806.16 293.47 821.44 274.59 M790.96 321.74 C794.97 314.26 804.74 301.99 818.29 281.80 M787.76 318.99 C802.52 306.41 815.09 293.31 819.54 283.74 M794.25 321.80 C802.28 309.62 809.56 303.68 821.35 291.20 M797.59 319.72 C806.64 309.63 814.73 299.31 821.56 293.72 M807.41 319.89 C810.94 313.69 813.50 308.49 821.77 304.76 M803.55 319.19 C809.32 314.21 815.73 307.45 821.75 302.64 M814.26 320.91 C814.54 318.31 816.46 313.66 819.89 310.45 M812.80 319.30 C815.38 317.78 818.52 314.55 820.68 310.94" stroke="#ffffff" stroke-width="1" fill="none" stroke-linecap="round"/>
      <path d="M281.07 220.28 C398.09 218.53 514.84 218.40 820.46 220.97 M280.39 220.37 C403.76 221.92 527.04 222.33 819.96 220.01 M820.50 220.72 C821.92 240.24 820.29 264.22 819.41 322.40 M818.61 220.15 C819.81 246.08 818.61 269.27 819.88 319.06 M820.15 318.89 C654.28 319.91 489.94 320.67 279.81 320.84 M819.64 320.52 C698.06 319.59 575.93 319.52 280.41 319.67 M281.21 322.59 C280.93 288.92 281.68 255.41 279.71 217.86 M280.06 319.85 C280.97 296.54 281.98 273.03 279.16 218.75" stroke="#334155" stroke-width="1.5" fill="none" stroke-linecap="round" stroke-linejoin="round"/>
<text x="298" y="236" font-family="Inter, 'Comic Sans MS', system-ui, sans-serif" font-size="14" font-weight="400" fill="#1e293b" text-anchor="start" dominant-baseline="hanging"><tspan x="298" dy="0">Stripe quietly retries. It fails again.</tspan><tspan x="298" dy="17.5">Sarah gets &quot;Quick reminder, your payment needs attention.&quot;</tspan></text>
<path d="M110.05 369.94 C110.05 369.94 110.05 369.94 110.05 369.94 M110.05 369.94 C110.05 369.94 110.05 369.94 110.05 369.94 M110.77 378.64 C110.95 376.23 114.88 375.24 117.84 369.20 M110.57 379.29 C112.83 377.00 114.62 374.03 117.60 370.82 M111.87 386.18 C115.56 381.39 123.82 376.46 127.38 371.06 M108.74 388.95 C112.83 384.57 117.26 380.29 126.20 370.47 M112.51 398.79 C120.35 389.48 123.88 377.38 136.58 370.57 M109.26 398.15 C117.35 388.13 124.55 378.99 132.87 368.41 M112.30 404.96 C121.43 391.44 135.86 375.43 140.98 371.22 M110.37 406.53 C120.98 393.90 130.85 380.92 142.03 370.90 M107.12 418.37 C124.40 399.50 140.24 384.30 151.23 370.69 M109.90 415.77 C120.44 403.33 128.66 392.94 149.93 369.41 M113.00 424.69 C123.57 410.15 134.52 396.68 160.02 370.04 M109.62 423.55 C121.53 411.67 129.76 400.77 157.78 370.88 M114.50 431.67 C134.74 403.58 153.56 382.96 165.32 371.27 M112.97 429.09 C131.37 409.98 150.10 388.04 164.59 369.03 M122.63 427.12 C134.90 416.07 149.24 399.58 174.16 372.10 M121.66 429.45 C134.39 415.60 146.00 401.76 172.62 370.40 M130.47 427.95 C145.39 413.56 160.53 394.12 183.41 367.34 M129.45 429.69 C149.37 408.22 165.61 386.65 182.47 369.47 M138.76 429.44 C158.24 409.96 175.50 390.93 186.84 367.88 M136.81 430.36 C158.45 405.92 177.35 382.51 190.65 370.87 M144.54 426.99 C160.64 417.25 168.28 399.98 195.10 368.48 M146.83 430.01 C165.02 406.13 183.56 384.00 195.87 370.13 M155.49 428.63 C163.17 412.44 176.74 398.66 206.53 369.76 M154.76 428.36 C172.55 408.04 190.28 386.14 205.16 370.50 M163.43 429.29 C178.15 406.88 197.96 389.38 216.01 368.37 M162.32 428.90 C173.27 417.88 184.65 404.78 212.17 369.30 M169.90 428.90 C185.47 411.91 199.27 397.03 221.90 370.40 M170.03 430.80 C186.39 409.44 202.96 390.95 222.73 368.91 M178.66 427.20 C191.57 412.14 201.26 396.62 229.34 370.36 M177.05 429.74 C190.44 414.20 204.59 397.99 230.35 368.76 M185.48 426.92 C201.39 411.99 218.36 396.26 237.16 368.32 M185.20 428.47 C195.57 417.63 204.97 406.25 235.68 371.65 M195.32 426.74 C206.17 417.76 218.27 402.47 241.72 370.53 M192.69 430.14 C204.37 417.33 213.26 406.91 242.27 372.21 M204.14 431.89 C211.56 418.70 218.73 407.00 240.05 379.38 M201.47 428.33 C214.58 416.35 226.92 400.80 241.78 380.77 M210.55 430.30 C217.95 419.77 232.35 403.13 241.87 389.31 M208.10 428.36 C219.63 419.51 229.21 406.04 243.12 390.34 M216.73 429.41 C224.86 418.29 229.72 409.08 240.77 399.74 M216.26 429.94 C225.22 421.73 230.56 413.64 242.56 398.30 M226.52 428.54 C230.18 425.32 236.11 416.67 245.76 409.64 M225.31 427.86 C230.39 424.02 233.91 418.67 244.37 408.34 M232.26 430.91 C233.86 425.22 238.68 426.04 243.39 419.27 M233.71 429.24 C234.76 426.02 238.39 423.57 244.02 418.82" stroke="#ccfbf1" stroke-width="1" fill="none" stroke-linecap="round"/>
      <path d="M108.84 370.54 C140.20 372.36 166.20 370.16 238.93 367.30 M110.03 368.96 C159.09 370.84 209.08 372.33 239.37 371.17 M241.48 368.72 C240.20 389.16 243.52 404.62 237.38 426.50 M240.96 371.16 C240.79 384.61 238.94 398.51 241.11 425.40 M241.49 426.82 C192.49 422.83 142.19 425.39 110.17 428.77 M239.89 424.87 C196.72 425.85 152.48 426.42 109.56 424.97 M110.36 426.53 C112.00 408.12 112.14 388.88 109.43 370.55 M110.00 426.16 C110.04 403.39 108.33 382.66 110.20 368.79" stroke="#0d9488" stroke-width="1.5" fill="none" stroke-linecap="round" stroke-linejoin="round"/>
<text x="175" y="381" font-family="Inter, 'Comic Sans MS', system-ui, sans-serif" font-size="16" font-weight="600" fill="#0d9488" text-anchor="middle" dominant-baseline="hanging"><tspan x="175" dy="0">Day 4</tspan><tspan x="175" dy="20">to 5</tspan></text>
<path d="M279.70 370.34 C279.70 370.34 279.70 370.34 279.70 370.34 M279.70 370.34 C279.70 370.34 279.70 370.34 279.70 370.34 M280.51 379.29 C282.50 374.50 285.79 373.23 287.92 369.53 M280.77 378.24 C283.76 375.40 285.97 372.40 287.54 369.40 M279.66 386.12 C282.41 383.53 287.65 375.48 295.60 369.72 M280.20 387.01 C282.29 384.20 286.96 380.70 296.85 370.00 M277.50 399.65 C288.03 389.33 292.61 382.95 301.66 367.69 M281.23 397.57 C287.66 390.22 293.25 382.61 303.47 370.33 M279.42 406.20 C285.53 401.02 291.93 392.46 313.02 371.19 M278.92 407.51 C287.92 397.13 296.66 385.39 310.67 371.40 M279.11 417.57 C294.42 397.06 308.10 382.15 319.19 368.09 M279.27 414.89 C290.38 404.62 298.76 395.01 321.39 370.44 M280.77 425.63 C291.44 411.81 301.71 398.80 325.40 370.35 M280.89 426.05 C289.92 413.35 303.41 400.00 329.04 370.45 M278.99 432.12 C301.43 413.38 318.35 387.81 333.75 369.26 M280.14 434.43 C299.55 411.11 320.34 389.53 336.41 369.90 M280.72 442.12 C299.49 419.42 322.69 393.17 342.91 368.36 M280.41 442.68 C292.79 426.69 305.35 412.15 344.15 369.66 M279.68 454.68 C306.31 423.62 328.87 395.16 353.96 370.48 M280.44 452.72 C302.22 428.12 322.78 403.04 352.34 369.30 M278.28 461.83 C299.56 442.90 318.22 419.72 362.20 367.63 M280.88 462.67 C297.03 439.85 317.39 420.09 360.66 370.24 M279.46 472.12 C307.86 442.28 330.19 412.49 365.29 371.07 M281.63 470.09 C304.14 440.75 331.16 412.48 366.71 370.24 M285.90 469.95 C322.70 432.00 359.09 390.98 375.16 369.41 M287.99 471.31 C309.58 442.60 335.50 415.72 375.03 371.16 M293.85 468.11 C322.04 439.34 350.45 410.00 381.32 369.86 M296.15 471.30 C324.00 436.48 351.35 406.69 384.21 370.62 M303.25 470.67 C331.05 438.68 361.59 401.86 393.10 371.33 M304.53 469.69 C336.39 431.32 369.44 392.89 389.88 370.83 M310.14 469.37 C344.41 435.23 374.18 403.87 400.68 368.30 M311.84 470.49 C348.15 431.32 382.08 390.55 400.26 369.17 M321.43 471.70 C350.65 433.78 385.50 397.25 408.39 372.47 M319.16 468.96 C354.14 430.80 387.60 391.29 407.88 370.82 M326.61 472.17 C355.52 439.39 379.45 414.55 415.85 368.10 M326.83 469.81 C348.64 447.17 369.91 422.52 414.01 370.02 M337.16 473.00 C362.00 435.71 391.35 403.55 423.29 372.82 M336.04 469.37 C370.83 430.28 406.89 389.21 422.76 371.06 M344.80 468.40 C371.36 438.95 403.10 402.37 432.40 368.00 M343.35 470.12 C361.53 449.52 379.15 428.80 432.12 369.75 M352.00 469.01 C374.42 448.13 391.49 427.77 440.52 370.79 M353.04 469.37 C377.09 441.65 401.75 415.45 439.26 368.82 M361.50 471.22 C390.23 435.92 421.62 399.65 449.70 372.62 M360.97 470.03 C391.90 433.91 423.89 396.91 448.17 370.38 M367.63 470.44 C398.98 432.48 429.99 396.48 455.26 372.06 M366.82 469.32 C398.46 435.87 430.30 397.38 455.35 368.90 M376.79 472.60 C405.72 432.75 434.88 399.29 462.79 367.52 M374.96 469.67 C392.85 448.90 409.48 428.91 462.62 369.88 M381.99 468.25 C409.81 436.24 443.21 402.26 468.76 369.52 M384.34 470.36 C421.01 429.17 455.83 387.99 471.64 370.61 M391.56 469.00 C412.16 446.34 430.36 427.76 479.91 369.14 M391.95 469.71 C423.19 434.42 453.25 399.91 479.46 368.65 M398.06 470.45 C425.57 441.08 449.16 415.66 485.90 368.94 M399.50 470.72 C431.05 433.11 462.20 397.70 487.53 369.61 M409.34 470.03 C435.09 438.43 466.17 405.71 495.45 368.21 M407.98 470.28 C427.64 445.50 451.50 419.90 494.43 370.40 M415.10 470.89 C438.12 441.84 465.22 412.29 500.18 369.66 M416.50 469.40 C433.28 447.24 454.12 425.62 501.61 370.82 M425.90 469.97 C456.59 431.20 491.50 393.61 508.42 372.09 M424.71 469.03 C447.45 442.80 471.82 414.66 509.40 369.83 M431.79 469.27 C456.88 441.33 483.28 415.76 516.96 369.67 M432.09 470.88 C452.76 447.26 472.02 425.20 519.49 369.69 M441.31 469.57 C472.57 434.96 503.70 396.89 525.71 368.80 M440.44 470.43 C473.47 431.15 508.96 390.00 525.78 371.29 M448.71 467.91 C481.31 427.96 517.06 388.50 531.89 370.65 M447.72 469.22 C480.93 431.71 515.07 394.68 533.66 369.87 M456.13 468.06 C492.96 429.39 523.16 390.54 542.07 368.59 M456.13 470.62 C484.87 436.25 512.73 401.07 542.67 370.15 M465.86 469.41 C483.38 446.88 503.84 422.98 549.51 369.92 M462.97 469.54 C495.08 433.64 529.52 395.64 551.81 370.91 M468.93 471.88 C488.72 443.73 513.50 421.49 560.08 367.96 M471.54 470.53 C490.96 445.11 513.33 422.50 558.72 368.62 M478.87 468.53 C501.67 445.61 525.81 418.64 563.97 369.28 M478.69 470.12 C504.01 442.34 528.93 413.85 565.06 370.10 M489.97 469.12 C510.46 443.96 528.14 422.42 575.15 369.61 M486.25 471.17 C518.37 434.15 548.53 398.52 575.24 369.08 M496.61 468.49 C529.49 427.00 564.54 387.66 583.92 371.71 M496.47 468.89 C514.11 449.65 534.00 426.97 582.58 369.06 M505.15 471.94 C533.96 436.91 562.13 399.69 587.54 370.66 M504.28 469.90 C534.77 432.67 569.44 394.97 590.06 369.32 M508.47 469.21 C528.03 449.25 544.54 432.06 596.43 367.90 M509.63 469.84 C534.25 441.84 561.80 410.75 596.92 369.95 M516.99 469.26 C546.21 440.70 572.49 412.42 603.20 367.76 M517.60 470.56 C543.58 441.08 569.47 413.00 605.38 369.04 M525.29 470.44 C548.82 441.76 575.07 411.93 614.26 372.13 M526.05 470.79 C551.63 440.35 578.58 409.62 613.08 370.82 M534.25 471.05 C559.85 443.19 583.32 413.98 624.38 371.37 M533.63 470.30 C567.28 434.96 597.61 397.76 622.54 368.75 M543.35 469.38 C572.50 435.66 600.72 400.23 628.59 369.56 M541.91 470.79 C576.42 431.92 611.00 390.87 630.66 370.29 M550.40 468.60 C567.57 447.96 583.94 430.79 635.92 369.82 M549.43 471.67 C577.57 438.50 606.73 408.58 638.17 368.80 M558.02 468.68 C577.68 449.05 599.65 424.28 644.43 369.73 M559.54 471.12 C591.23 431.40 625.96 392.14 644.25 369.23 M567.78 471.22 C589.01 444.31 613.97 414.74 652.59 370.86 M566.11 470.32 C595.48 437.46 624.13 405.01 653.66 370.34 M572.50 468.41 C606.08 434.67 642.14 393.58 659.05 372.41 M575.15 471.49 C599.23 439.17 626.31 410.27 662.46 368.86 M583.98 470.26 C617.80 430.80 649.92 395.32 671.75 371.31 M582.16 470.88 C611.15 438.92 640.94 404.72 668.48 368.79 M588.41 469.27 C619.92 430.37 655.36 393.72 679.61 372.69 M590.46 471.79 C623.68 429.68 659.48 391.18 676.56 371.56 M599.83 469.53 C628.19 432.88 659.55 397.89 686.41 371.36 M597.36 471.04 C617.77 448.70 635.76 425.47 686.20 369.51 M606.62 471.97 C633.12 438.50 663.97 405.56 691.35 369.68 M606.49 470.12 C635.59 437.33 663.47 406.00 694.47 368.65 M611.43 471.68 C641.26 435.13 673.72 402.72 702.83 368.45 M614.44 469.07 C636.17 443.89 659.71 418.27 702.73 369.10 M622.50 471.14 C646.72 437.73 675.54 407.31 711.12 369.76 M623.04 469.28 C640.84 450.41 657.11 430.38 708.88 370.16 M628.68 470.14 C654.13 439.22 680.65 411.18 718.94 367.92 M631.14 471.11 C656.78 442.06 682.33 411.27 716.89 370.27 M638.89 469.63 C665.97 436.44 700.23 404.14 728.29 372.13 M639.03 470.09 C667.30 435.39 695.63 401.47 726.36 369.48 M648.17 471.00 C676.31 434.93 707.83 400.57 731.79 369.36 M645.24 469.59 C677.20 435.81 707.75 400.92 733.69 369.50 M652.47 470.56 C670.87 451.20 690.27 427.93 741.42 372.05 M654.29 470.40 C678.19 441.24 705.56 409.72 741.07 370.30 M659.54 470.03 C687.13 438.02 717.65 408.06 746.22 369.79 M662.34 469.38 C678.91 447.11 699.30 426.01 749.21 370.14 M667.40 468.46 C689.40 444.11 713.26 421.38 754.53 369.56 M670.61 468.88 C687.87 447.08 705.34 427.46 757.53 371.60 M675.32 472.66 C708.66 436.65 736.16 406.52 766.19 371.67 M676.70 469.82 C701.48 443.70 723.44 416.48 765.69 369.36 M687.28 469.34 C718.72 434.50 745.24 399.80 772.28 368.95 M685.05 469.64 C710.82 439.50 739.39 407.56 773.32 368.47 M694.90 469.16 C727.39 433.40 759.08 391.16 781.04 369.32 M692.59 469.41 C716.16 445.28 735.64 421.20 782.06 371.16 M700.10 471.39 C727.70 441.14 753.85 410.00 789.61 372.61 M701.58 469.96 C735.26 434.41 767.51 396.30 789.66 369.82 M712.50 470.63 C728.47 445.46 749.12 423.46 795.40 368.84 M708.52 469.58 C731.86 445.28 753.64 419.99 797.15 371.30 M718.35 470.02 C743.67 434.30 774.21 402.19 804.76 367.35 M716.48 469.55 C740.94 443.41 764.13 417.14 806.21 369.25 M726.03 473.02 C745.90 442.38 771.17 416.21 813.09 370.79 M724.57 470.87 C758.99 432.64 790.22 394.14 811.89 369.38 M734.98 468.58 C764.68 437.78 793.01 403.28 822.38 372.46 M734.60 471.40 C753.53 447.30 772.89 423.29 820.04 369.29 M738.77 471.48 C762.87 449.11 781.27 426.87 819.00 378.66 M740.05 471.91 C763.68 444.81 785.26 420.12 820.92 378.75 M747.64 470.21 C768.33 450.85 785.08 430.05 822.82 388.12 M750.11 469.52 C777.06 439.51 803.68 409.34 821.44 387.29 M754.69 471.01 C781.63 445.00 800.80 420.76 818.29 395.89 M758.48 470.26 C769.68 454.71 783.22 440.00 819.62 396.85 M767.39 469.95 C783.71 452.43 795.33 432.77 820.71 408.46 M765.10 470.36 C784.79 448.45 804.51 425.68 820.40 408.23 M773.65 469.08 C788.22 452.57 805.68 434.64 819.79 414.85 M773.02 471.65 C787.08 451.84 803.25 431.72 819.73 415.28 M781.98 468.24 C790.82 458.29 797.15 448.75 821.20 427.60 M782.21 468.59 C794.80 452.66 809.63 437.52 820.94 425.72 M787.57 470.01 C792.82 462.78 801.36 453.95 818.13 437.03 M789.29 469.33 C796.88 459.88 807.09 449.19 818.81 435.68 M798.20 468.58 C799.95 464.65 809.56 460.60 822.33 440.32 M797.95 471.32 C805.09 462.37 812.80 453.10 819.38 444.17 M806.00 471.40 C811.23 466.73 817.59 455.92 821.84 454.77 M804.69 471.12 C809.48 462.67 816.69 456.00 821.42 453.01 M811.10 469.92 C815.82 466.70 817.56 463.48 820.73 460.08 M811.99 471.33 C814.51 468.58 816.78 466.46 820.16 461.07" stroke="#ffffff" stroke-width="1" fill="none" stroke-linecap="round"/>
      <path d="M280.25 370.15 C403.22 369.68 524.41 370.29 820.92 369.11 M279.64 369.92 C459.19 367.25 639.57 368.03 819.54 369.80 M822.47 372.31 C816.83 391.42 819.50 418.53 820.95 468.60 M820.51 369.38 C819.32 394.90 819.62 418.45 819.54 469.74 M821.04 469.52 C684.49 472.56 549.85 471.61 280.32 469.14 M820.28 469.70 C684.61 472.17 548.66 472.70 280.36 469.50 M279.52 468.48 C283.82 435.99 283.35 401.68 279.15 367.63 M279.94 470.47 C281.02 433.46 279.39 397.95 281.24 368.84" stroke="#334155" stroke-width="1.5" fill="none" stroke-linecap="round" stroke-linejoin="round"/>
<text x="298" y="386" font-family="Inter, 'Comic Sans MS', system-ui, sans-serif" font-size="14" font-weight="400" fill="#1e293b" text-anchor="start" dominant-baseline="hanging"><tspan x="298" dy="0">Retry. Fails. Sarah gets &quot;Your access is at risk.&quot;</tspan></text>
<path d="M110.19 519.79 C110.19 519.79 110.19 519.79 110.19 519.79 M110.19 519.79 C110.19 519.79 110.19 519.79 110.19 519.79 M109.76 530.50 C111.99 528.49 113.08 525.39 117.52 520.41 M110.49 529.43 C112.64 525.94 115.37 523.05 118.68 520.21 M112.56 536.62 C117.52 532.16 122.90 522.98 123.34 518.93 M111.18 538.41 C117.21 530.31 122.47 523.98 127.02 520.08 M107.61 545.47 C120.94 534.73 125.90 528.39 132.51 520.21 M109.93 547.53 C116.94 539.83 121.11 533.50 134.24 519.25 M111.65 557.99 C115.85 547.81 126.55 538.98 140.30 520.20 M109.79 556.24 C117.53 547.70 122.71 539.60 142.94 520.94 M110.63 567.33 C125.25 549.66 136.76 535.04 152.27 521.65 M110.95 564.55 C119.85 555.34 128.38 543.72 149.56 519.21 M108.72 576.36 C124.93 563.45 134.37 545.48 155.91 521.21 M109.54 575.55 C119.60 560.86 132.60 550.83 157.02 520.58 M114.79 575.14 C131.58 557.67 148.21 542.95 167.30 517.81 M115.84 576.74 C135.79 556.84 154.35 534.94 164.95 521.32 M125.87 575.98 C134.17 563.31 147.45 554.52 171.84 520.03 M123.43 577.57 C142.52 556.24 160.15 533.46 173.06 521.53 M131.71 576.55 C150.17 554.82 171.14 534.14 179.74 517.07 M131.45 576.50 C145.42 564.57 155.42 549.86 183.04 520.97 M141.96 576.85 C156.31 561.82 167.85 543.45 191.48 517.94 M140.72 577.62 C155.58 561.23 168.16 543.72 190.19 520.17 M148.70 576.16 C169.39 557.20 184.05 535.04 195.01 518.62 M147.93 574.68 C168.93 555.30 187.49 531.13 197.07 520.89 M156.21 575.78 C174.92 554.02 188.75 537.12 203.96 518.86 M155.53 575.98 C176.07 552.95 194.16 533.09 205.07 521.61 M164.18 577.04 C177.63 562.80 192.04 542.06 213.06 520.40 M164.30 575.43 C175.26 563.07 185.06 552.36 214.28 520.99 M169.61 578.47 C188.67 553.48 212.21 533.22 219.54 521.30 M172.03 577.41 C184.82 562.29 196.48 550.27 220.66 519.00 M180.88 576.81 C193.35 565.66 202.62 553.11 231.54 522.39 M180.28 576.51 C196.83 558.99 211.06 539.05 229.69 520.13 M186.09 575.39 C198.93 563.82 213.66 550.20 239.15 521.58 M187.43 576.78 C207.85 554.34 225.68 532.38 236.80 520.54 M197.80 576.51 C214.94 556.62 226.88 538.41 243.60 523.01 M195.29 576.79 C208.56 561.41 219.69 548.02 242.16 525.18 M204.49 578.63 C213.22 569.01 220.93 560.36 238.79 536.13 M204.92 574.94 C216.83 562.07 227.46 551.61 241.60 534.02 M212.04 578.13 C221.57 566.08 228.17 551.97 238.14 541.78 M211.59 575.09 C222.04 565.99 230.59 554.92 241.93 544.25 M220.93 573.87 C226.82 569.14 232.39 559.32 240.40 554.28 M220.68 576.88 C225.63 570.10 231.57 563.51 241.68 551.79 M230.66 578.29 C232.78 574.33 234.60 568.38 238.16 560.61 M228.15 576.69 C230.37 571.34 235.26 569.23 241.88 562.91 M236.61 575.42 C236.72 574.98 238.27 572.27 240.87 571.68 M236.35 576.39 C237.38 574.97 238.91 573.21 240.63 570.66" stroke="#ccfbf1" stroke-width="1" fill="none" stroke-linecap="round"/>
      <path d="M112.38 520.22 C142.06 517.66 168.19 517.31 240.06 518.24 M110.97 520.64 C147.85 520.19 185.16 519.80 241.12 520.65 M237.85 520.30 C241.60 540.14 238.02 558.52 238.91 578.30 M240.06 520.40 C240.55 533.81 240.20 545.63 240.76 576.08 M238.13 578.39 C195.25 576.49 157.65 574.79 111.45 574.50 M238.70 575.63 C193.80 576.17 145.72 575.44 109.42 577.33 M108.67 578.02 C107.40 556.01 111.93 536.79 108.87 520.32 M109.88 576.78 C111.93 557.34 110.38 538.84 109.47 518.88" stroke="#0d9488" stroke-width="1.5" fill="none" stroke-linecap="round" stroke-linejoin="round"/>
<text x="175" y="531" font-family="Inter, 'Comic Sans MS', system-ui, sans-serif" font-size="16" font-weight="600" fill="#0d9488" text-anchor="middle" dominant-baseline="hanging"><tspan x="175" dy="0">Day 6</tspan><tspan x="175" dy="20">to 7</tspan></text>
<path d="M279.84 520.19 C279.84 520.19 279.84 520.19 279.84 520.19 M279.84 520.19 C279.84 520.19 279.84 520.19 279.84 520.19 M278.84 528.55 C283.14 527.51 283.59 524.13 286.95 521.49 M280.04 529.13 C283.17 526.55 286.32 521.96 287.97 519.54 M279.70 537.32 C283.86 534.89 286.37 528.02 297.17 517.59 M279.18 540.02 C286.78 529.96 292.52 524.11 294.87 519.61 M278.20 546.34 C289.61 540.60 295.83 528.54 303.84 522.18 M279.11 546.95 C284.65 541.69 290.22 533.85 302.69 520.41 M278.77 553.63 C287.37 544.41 296.44 535.67 312.35 520.18 M281.14 557.22 C290.86 544.48 301.30 530.29 311.58 521.45 M282.63 566.53 C295.05 547.49 304.17 533.40 319.57 519.81 M280.32 566.47 C286.86 556.78 295.41 546.11 320.37 520.99 M282.76 576.54 C291.76 557.58 305.97 545.87 326.89 521.52 M281.47 574.50 C289.77 561.96 302.28 549.65 328.28 520.16 M282.25 584.21 C297.82 570.00 307.36 549.86 335.73 521.41 M280.39 585.09 C300.67 559.75 322.35 534.18 336.76 519.40 M281.33 594.00 C298.57 569.30 321.23 550.14 341.25 521.15 M279.55 593.82 C303.03 567.13 324.50 543.12 342.45 520.04 M278.29 600.69 C297.08 578.94 314.19 562.22 350.29 520.22 M279.82 602.55 C306.13 570.39 332.94 540.60 350.11 520.79 M278.86 612.26 C310.25 574.37 338.72 539.60 360.59 518.44 M279.37 612.95 C305.83 580.36 333.89 547.57 359.55 520.29 M281.01 618.71 C302.58 598.27 320.42 571.23 365.20 521.21 M280.11 620.58 C305.18 588.38 333.94 558.89 367.90 521.00 M289.58 620.11 C313.78 588.63 343.73 558.63 373.25 517.75 M288.93 619.15 C314.88 589.46 340.93 558.86 375.60 518.71 M297.58 618.87 C318.07 594.16 339.82 568.65 383.98 521.89 M295.51 620.85 C323.80 586.72 352.97 555.83 383.52 519.52 M305.28 618.41 C324.33 600.20 346.65 572.23 390.74 522.22 M303.25 620.07 C329.36 590.79 355.05 561.65 390.61 520.92 M314.68 622.75 C339.68 588.33 362.44 561.08 396.62 521.08 M311.79 621.04 C333.75 595.02 355.77 570.33 398.95 521.29 M319.42 617.58 C352.87 589.93 378.99 556.52 404.78 520.13 M318.77 620.29 C351.04 582.29 385.99 546.22 406.21 519.70 M326.47 619.36 C345.45 598.71 370.21 571.47 414.10 518.32 M326.80 619.47 C356.68 589.73 384.11 557.60 415.86 520.72 M334.88 622.77 C361.45 589.34 391.62 559.91 423.99 521.71 M336.86 621.81 C354.65 599.09 373.62 577.99 421.75 519.25 M343.67 619.25 C373.41 586.37 398.74 556.32 429.98 518.97 M344.21 619.87 C364.92 594.85 387.64 572.70 429.45 519.36 M352.93 622.84 C377.19 589.71 399.85 563.14 437.18 522.31 M351.39 620.09 C376.16 590.37 400.79 563.18 438.21 519.30 M357.55 618.51 C386.20 590.98 410.38 560.77 444.60 520.52 M361.19 619.12 C391.55 585.33 423.96 546.84 448.36 519.20 M365.14 621.60 C394.34 590.41 420.36 566.63 455.69 522.47 M367.25 619.90 C387.21 599.05 405.42 576.71 454.28 519.80 M375.29 618.73 C397.29 596.25 417.50 570.11 462.64 521.41 M374.50 620.24 C405.03 590.45 431.42 557.52 462.94 518.96 M383.91 617.83 C402.84 598.02 423.61 571.80 470.41 519.79 M384.67 619.47 C411.43 587.78 441.49 554.72 469.62 519.80 M392.84 620.84 C424.15 583.59 456.63 546.07 478.75 517.80 M391.05 619.22 C416.88 593.46 440.78 562.14 479.79 520.61 M400.72 619.62 C428.92 585.66 452.48 556.47 486.15 519.60 M400.89 620.71 C418.06 598.91 437.86 575.32 487.05 521.14 M406.93 618.98 C443.04 581.07 476.06 538.39 491.91 518.04 M407.75 619.90 C425.61 598.70 445.42 575.94 495.57 519.99 M416.01 619.57 C447.66 579.49 483.36 543.92 500.12 517.68 M416.21 619.76 C449.61 581.25 482.75 542.94 503.59 520.89 M422.47 620.40 C456.19 582.89 492.48 544.94 513.49 516.97 M423.11 618.87 C445.44 596.38 465.45 572.41 512.04 519.04 M428.76 622.23 C463.94 585.08 496.33 549.98 520.52 520.09 M430.59 619.04 C453.51 593.49 477.67 568.73 519.27 518.68 M438.91 620.73 C470.28 588.52 498.32 553.06 525.58 521.63 M439.00 621.32 C469.31 586.01 501.34 550.82 526.62 519.17 M448.54 621.12 C471.63 593.40 492.02 572.02 536.07 518.47 M445.91 619.69 C476.30 589.63 505.44 554.87 533.25 521.35 M458.28 617.51 C483.56 583.88 513.44 555.71 544.42 520.70 M456.06 619.61 C490.37 583.98 521.20 545.75 541.15 520.22 M463.72 618.73 C494.32 583.60 530.63 544.57 552.09 520.41 M463.52 620.53 C497.68 581.51 532.84 541.46 550.49 518.69 M471.52 619.06 C490.48 595.35 514.31 572.69 559.57 517.63 M469.89 620.28 C490.49 596.50 510.39 574.07 558.55 518.48 M478.17 618.49 C502.25 589.18 530.59 566.39 565.61 519.01 M477.65 619.88 C508.74 584.20 541.63 548.10 566.71 518.88 M488.33 619.57 C521.45 579.08 555.00 539.46 574.00 518.87 M485.45 620.58 C505.01 598.71 523.50 578.42 573.83 518.82 M496.95 621.55 C516.09 602.31 530.99 581.50 583.99 518.50 M496.00 619.30 C514.65 598.16 536.87 574.13 582.75 519.43 M504.34 620.97 C533.75 585.00 558.10 554.32 589.07 520.20 M502.44 620.57 C534.15 583.31 565.17 548.80 591.33 519.54 M512.68 618.83 C533.72 594.05 551.73 567.43 597.75 522.42 M510.73 619.86 C538.77 589.88 563.47 560.01 598.46 519.21 M518.77 621.20 C537.98 595.97 554.14 573.85 607.64 521.16 M517.59 621.12 C539.47 594.64 562.59 570.96 606.80 519.86 M524.06 622.13 C545.69 594.53 565.30 570.94 615.00 521.93 M526.83 621.05 C559.14 583.93 591.18 545.71 614.84 519.36 M536.23 617.33 C554.43 598.27 577.06 570.17 619.79 521.81 M536.21 620.07 C553.09 600.36 573.77 576.16 622.52 520.83 M542.38 618.80 C562.82 597.65 580.61 577.78 629.63 521.33 M541.99 618.81 C571.25 587.97 600.12 555.07 628.92 519.34 M553.07 619.98 C569.00 600.10 594.01 573.99 639.49 520.38 M551.55 619.66 C582.74 584.44 614.03 546.89 637.78 518.83 M558.70 621.59 C589.44 581.51 623.56 549.60 646.85 518.85 M557.16 620.46 C589.07 583.39 621.25 545.96 646.68 518.85 M565.39 622.12 C588.94 597.03 604.56 573.27 656.08 521.96 M565.48 619.09 C593.38 593.37 619.67 562.65 652.14 521.24 M573.68 621.37 C599.28 592.41 618.41 572.35 663.27 520.28 M574.21 621.16 C605.50 582.64 638.70 543.27 661.68 518.71 M583.45 619.06 C608.66 587.37 637.69 554.51 668.61 521.22 M581.81 619.15 C598.96 600.76 617.08 578.19 670.43 519.30 M589.48 618.38 C614.19 597.80 630.36 573.26 675.62 519.74 M589.27 619.75 C622.40 582.44 654.98 544.78 676.44 519.96 M599.83 622.79 C632.81 578.65 668.85 541.10 686.75 518.61 M598.27 621.15 C632.65 581.16 666.96 541.34 685.36 519.82 M606.68 618.98 C625.88 597.65 651.91 570.70 693.75 519.66 M607.75 619.77 C623.84 598.34 643.59 577.56 694.42 519.95 M612.66 622.26 C650.19 581.27 683.10 543.93 698.93 517.91 M614.39 619.38 C648.61 580.07 681.18 542.77 700.36 518.86 M621.75 622.11 C656.14 584.47 685.11 543.96 707.88 518.99 M620.91 620.02 C649.52 591.78 672.91 562.41 708.23 518.81 M632.05 622.01 C648.92 593.53 669.63 574.10 714.75 518.26 M630.89 621.56 C658.38 584.01 689.01 550.58 717.30 520.37 M640.13 622.36 C667.10 588.13 690.63 558.08 723.01 518.29 M637.04 621.94 C664.89 591.91 689.61 562.09 724.31 520.31 M648.31 617.32 C677.40 587.09 709.72 550.04 733.73 522.14 M647.28 619.78 C671.20 590.50 699.13 559.19 734.75 520.36 M654.57 620.69 C680.10 586.44 708.33 554.26 743.92 517.27 M652.92 619.22 C676.14 596.43 694.56 573.05 740.89 519.56 M663.06 619.82 C687.85 588.72 717.98 560.16 748.58 521.78 M660.83 620.33 C689.59 588.73 718.62 553.93 749.72 519.95 M668.44 618.25 C684.50 599.60 703.54 580.32 755.92 517.96 M670.02 621.13 C699.23 586.64 730.40 551.23 758.14 518.91 M680.53 620.67 C707.18 585.06 738.33 550.08 763.70 519.09 M678.80 619.44 C707.95 586.82 736.30 551.83 763.66 521.47 M686.28 619.53 C722.46 582.29 752.93 541.95 772.11 521.56 M686.53 620.56 C705.73 594.36 726.65 571.98 773.63 520.43 M693.85 621.80 C727.15 583.97 756.13 549.07 779.26 519.53 M695.00 619.17 C720.49 590.84 746.80 560.48 781.89 520.91 M700.16 618.77 C728.93 591.64 753.63 560.37 786.11 520.41 M701.85 621.12 C734.38 582.00 767.33 542.81 789.68 519.41 M709.30 622.20 C743.88 584.23 779.62 544.17 797.60 520.35 M709.78 620.67 C728.96 598.40 750.08 575.77 796.26 520.01 M720.14 619.14 C734.77 596.08 752.79 573.89 801.87 517.92 M717.70 621.28 C750.60 584.22 782.30 546.71 805.35 520.04 M724.70 617.43 C760.81 581.02 790.42 544.39 813.87 519.36 M726.66 619.46 C743.15 599.19 760.17 581.12 813.47 519.60 M732.60 619.17 C762.01 583.09 792.36 549.57 823.31 522.46 M734.25 618.99 C755.90 594.84 779.70 569.22 821.47 519.49 M741.46 621.43 C760.73 601.89 783.38 578.89 822.46 527.15 M740.57 620.33 C766.59 592.71 792.53 565.23 821.04 530.42 M747.51 620.73 C774.39 588.62 803.55 557.10 822.56 536.92 M748.36 621.08 C766.26 599.42 783.36 579.67 821.52 538.10 M755.18 619.30 C781.64 593.62 802.54 569.36 817.76 546.55 M757.81 619.41 C779.53 596.48 799.87 572.39 820.17 548.39 M767.96 621.02 C777.00 606.92 787.19 596.06 822.00 558.64 M766.53 619.87 C784.78 597.49 806.50 574.28 821.43 556.28 M775.58 620.86 C789.31 601.22 807.21 584.17 822.33 567.25 M772.67 620.03 C786.05 606.12 799.46 591.80 818.97 567.40 M780.78 621.35 C790.60 609.06 805.22 594.13 819.14 577.96 M780.10 620.08 C789.12 609.20 800.46 599.33 821.08 576.09 M789.77 618.29 C797.99 604.89 811.64 592.22 818.63 585.90 M788.01 619.68 C800.47 605.97 811.93 593.09 821.53 584.08 M796.55 620.97 C802.15 609.54 813.00 602.18 822.65 595.78 M798.31 620.13 C804.11 613.18 811.24 605.18 819.34 592.57 M804.59 622.91 C811.30 614.42 815.65 609.46 821.25 605.54 M805.83 620.25 C809.90 614.23 817.65 607.92 820.44 604.13 M811.93 621.36 C815.55 619.92 815.38 617.26 820.88 610.71 M813.50 620.94 C815.66 617.10 818.12 614.78 820.58 612.03" stroke="#ffffff" stroke-width="1" fill="none" stroke-linecap="round"/>
      <path d="M279.42 520.02 C408.35 520.83 533.98 522.18 819.13 519.48 M280.02 519.47 C407.74 519.75 534.97 519.78 820.24 519.60 M818.84 518.30 C820.14 542.61 821.51 567.24 822.48 620.41 M819.61 518.61 C821.63 543.72 820.62 567.63 819.19 620.42 M819.70 620.15 C606.69 616.93 393.76 616.51 280.83 619.67 M819.80 620.00 C671.17 619.81 521.40 619.82 280.30 620.45 M277.83 619.96 C278.31 583.06 276.63 547.94 278.59 517.41 M279.82 621.10 C278.28 590.38 279.60 560.07 280.51 518.92" stroke="#334155" stroke-width="1.5" fill="none" stroke-linecap="round" stroke-linejoin="round"/>
<text x="298" y="536" font-family="Inter, 'Comic Sans MS', system-ui, sans-serif" font-size="14" font-weight="400" fill="#1e293b" text-anchor="start" dominant-baseline="hanging"><tspan x="298" dy="0">Last retry. Fails. Sarah gets</tspan><tspan x="298" dy="17.5">&quot;Final notice, access pauses tomorrow.&quot;</tspan></text>
<path d="M175.27 129.91 C177.02 152.73 172.74 169.90 176.03 215.29 M174.23 129.58 C173.59 163.53 173.72 197.38 175.06 216.11" stroke="#334155" stroke-width="1.5" fill="none" stroke-linecap="round" stroke-linejoin="round"/>
      <path d="M175.45 215.94 C173.39 214.08 172.35 211.79 170.44 206.91 M175.21 216.08 C173.76 212.87 172.00 210.01 170.56 207.26" stroke="#334155" stroke-width="1.5" fill="none" stroke-linecap="round" stroke-linejoin="round"/>
      <path d="M174.63 215.91 C175.61 213.78 176.59 211.06 179.84 207.02 M175.01 216.25 C176.36 213.24 177.62 210.92 179.13 206.91" stroke="#334155" stroke-width="1.5" fill="none" stroke-linecap="round" stroke-linejoin="round"/>
<path d="M175.02 279.50 C173.31 300.90 177.29 324.03 175.08 366.50 M174.24 279.34 C175.20 300.04 176.31 322.66 176.11 366.65" stroke="#334155" stroke-width="1.5" fill="none" stroke-linecap="round" stroke-linejoin="round"/>
      <path d="M175.38 365.84 C173.54 363.21 173.31 360.80 170.20 357.22 M175.21 366.01 C173.08 362.72 171.32 359.06 170.83 356.80" stroke="#334155" stroke-width="1.5" fill="none" stroke-linecap="round" stroke-linejoin="round"/>
      <path d="M174.56 365.81 C175.87 364.12 177.79 361.27 179.60 357.32 M175.01 366.19 C176.75 363.04 177.90 359.91 179.39 357.04" stroke="#334155" stroke-width="1.5" fill="none" stroke-linecap="round" stroke-linejoin="round"/>
<path d="M174.77 429.08 C174.40 453.88 177.05 478.15 174.14 517.71 M174.24 429.09 C174.75 456.14 174.44 482.33 174.77 517.19" stroke="#334155" stroke-width="1.5" fill="none" stroke-linecap="round" stroke-linejoin="round"/>
      <path d="M175.32 515.74 C173.69 513.54 173.07 511.01 171.17 507.52 M175.21 515.95 C173.86 513.73 172.97 511.66 170.49 506.93" stroke="#334155" stroke-width="1.5" fill="none" stroke-linecap="round" stroke-linejoin="round"/>
      <path d="M174.50 515.70 C176.14 513.25 177.79 511.48 179.37 506.42 M175.01 516.13 C175.57 514.09 176.94 512.55 179.06 507.18" stroke="#334155" stroke-width="1.5" fill="none" stroke-linecap="round" stroke-linejoin="round"/>
<path d="M109.74 800.30 C109.74 800.30 109.74 800.30 109.74 800.30 M109.74 800.30 C109.74 800.30 109.74 800.30 109.74 800.30 M109.73 808.62 C111.52 805.75 114.78 805.19 118.63 801.04 M108.81 808.95 C111.83 806.06 114.90 803.29 118.22 800.03 M113.06 819.68 C119.04 811.82 124.50 804.60 128.63 799.03 M110.05 817.48 C112.88 812.38 117.96 809.07 125.40 798.55 M110.91 827.45 C115.02 819.22 119.97 817.64 132.77 797.50 M108.93 827.54 C117.41 819.71 123.94 811.06 133.66 798.92 M110.35 838.49 C116.49 826.65 126.97 818.67 143.79 801.60 M110.24 836.70 C118.63 824.86 127.72 815.66 142.57 799.77 M112.64 847.83 C121.65 834.79 131.58 817.92 148.38 799.92 M109.20 846.87 C120.83 832.40 133.30 820.47 150.56 800.87 M110.69 856.38 C127.21 835.23 144.28 813.19 157.95 797.09 M110.76 856.06 C122.86 840.16 136.09 827.44 159.29 799.58 M114.93 859.82 C127.10 843.67 137.93 831.66 163.63 801.85 M114.82 859.20 C128.68 840.73 145.39 823.33 164.96 800.58 M119.84 859.48 C135.50 844.80 147.17 830.56 173.34 799.15 M121.89 858.39 C135.24 843.95 147.44 831.67 174.36 800.00 M132.12 860.67 C149.76 837.37 164.26 815.73 183.53 799.81 M129.08 859.16 C149.29 838.73 165.96 818.18 182.16 800.77 M139.16 857.24 C147.35 849.20 157.47 836.52 191.27 798.85 M137.65 859.95 C154.93 843.23 169.18 825.44 189.94 799.70 M147.76 858.61 C164.05 838.43 177.22 820.66 199.57 797.16 M145.55 860.35 C166.24 836.31 186.85 811.35 197.49 800.09 M155.88 861.08 C165.11 842.38 182.47 827.32 204.09 801.56 M152.69 859.66 C167.48 843.40 183.16 826.20 204.87 801.36 M164.05 857.24 C178.76 838.88 200.18 813.00 215.28 801.72 M162.52 858.74 C178.58 840.76 194.20 820.29 212.09 800.50 M167.21 859.52 C191.02 837.29 209.75 816.01 219.38 802.00 M171.03 860.41 C182.50 844.54 194.23 832.37 220.68 799.44 M179.63 857.40 C191.80 842.60 204.87 826.03 231.85 800.14 M178.99 858.31 C192.88 841.35 207.27 824.94 228.31 799.90 M185.22 859.55 C200.71 838.00 217.40 818.70 238.34 800.53 M184.27 858.66 C200.74 840.55 218.25 822.93 238.23 800.61 M196.04 862.27 C214.26 836.40 230.66 817.80 243.77 802.57 M194.10 860.75 C206.05 844.17 219.66 828.76 243.99 801.79 M200.03 861.00 C211.26 848.00 218.28 838.57 241.27 813.95 M200.69 859.35 C215.27 846.42 225.69 831.51 241.70 810.78 M208.28 858.01 C223.32 846.85 233.28 835.39 243.87 821.30 M210.35 858.76 C217.81 849.86 225.95 842.54 242.06 820.46 M216.61 859.72 C225.16 849.43 234.21 844.37 240.24 829.79 M216.14 858.20 C225.00 849.56 234.95 840.57 244.31 829.96 M224.81 861.89 C233.29 852.06 240.05 843.55 242.21 841.36 M224.14 860.27 C231.60 852.94 238.61 844.17 241.65 839.04 M233.86 861.41 C234.71 857.20 237.58 852.13 244.52 848.20 M233.80 860.05 C236.15 856.87 239.79 852.32 242.01 848.01" stroke="#ccfbf1" stroke-width="1" fill="none" stroke-linecap="round"/>
      <path d="M109.44 798.44 C146.68 797.51 184.74 798.99 237.90 797.80 M109.12 798.66 C157.02 800.41 201.21 802.26 240.96 799.21 M237.50 800.63 C242.37 817.13 242.84 829.19 238.95 854.24 M240.70 800.37 C241.62 820.58 239.65 843.42 240.27 857.03 M239.27 858.61 C199.40 857.18 159.02 857.19 107.28 856.24 M239.13 856.95 C213.95 855.29 186.54 857.21 110.05 854.94 M110.57 857.81 C108.73 841.21 112.18 827.65 111.40 801.88 M109.22 854.62 C108.93 836.66 108.21 816.45 109.68 799.34" stroke="#0d9488" stroke-width="1.5" fill="none" stroke-linecap="round" stroke-linejoin="round"/>
<text x="175" y="819" font-family="Inter, 'Comic Sans MS', system-ui, sans-serif" font-size="16" font-weight="600" fill="#0d9488" text-anchor="middle" dominant-baseline="hanging"><tspan x="175" dy="0">Day 8</tspan></text>
<path d="M175.90 578.72 C176.29 643.14 177.05 704.49 175.95 794.71 M175.74 579.62 C175.83 645.44 175.31 713.54 175.32 796.27" stroke="#334155" stroke-width="1.5" fill="none" stroke-linecap="round" stroke-linejoin="round"/>
      <path d="M174.44 795.60 C173.90 793.55 172.75 790.45 170.46 786.72 M175.01 796.07 C173.72 793.93 172.73 791.58 170.64 786.71" stroke="#334155" stroke-width="1.5" fill="none" stroke-linecap="round" stroke-linejoin="round"/>
      <path d="M174.82 795.56 C176.50 793.28 177.78 790.94 179.85 786.82 M174.81 796.25 C176.21 794.24 176.94 792.43 179.21 786.96" stroke="#334155" stroke-width="1.5" fill="none" stroke-linecap="round" stroke-linejoin="round"/>
<path d="M279.97 670.03 C279.97 670.03 279.97 670.03 279.97 670.03 M279.97 670.03 C279.97 670.03 279.97 670.03 279.97 670.03 M281.03 679.10 C281.90 675.21 287.51 672.02 287.27 670.79 M280.36 679.30 C281.24 677.39 284.28 674.99 288.02 669.59 M278.16 685.77 C286.69 684.16 286.38 679.63 295.47 671.16 M278.64 687.20 C286.02 681.09 292.40 674.49 296.35 671.37 M281.61 697.22 C286.96 686.02 295.40 678.42 301.49 670.91 M279.59 697.10 C289.23 687.71 297.91 675.68 304.88 669.13 M278.36 704.15 C288.71 694.28 304.76 680.07 312.41 669.62 M278.37 706.93 C288.71 696.53 295.04 689.48 311.56 669.90 M278.44 715.80 C293.32 705.15 300.20 689.40 320.42 671.89 M281.27 714.48 C290.92 703.63 301.25 692.01 319.79 670.51 M279.02 722.65 C289.65 714.93 299.28 701.05 330.23 670.24 M279.08 725.81 C293.89 709.10 304.98 693.05 327.07 669.78 M281.89 732.97 C294.42 716.06 308.19 700.98 337.55 670.59 M281.35 735.10 C298.86 711.25 318.53 690.13 335.64 669.62 M279.22 741.26 C305.01 712.63 331.02 683.63 345.57 669.15 M281.13 744.29 C302.07 718.01 322.28 695.27 343.73 670.80 M278.97 751.75 C302.32 726.52 327.34 692.52 351.75 669.33 M280.26 752.24 C301.81 727.80 323.88 703.21 350.46 671.01 M282.07 760.59 C306.36 732.04 331.67 702.12 358.66 669.76 M279.18 760.19 C304.65 732.79 329.75 702.99 358.34 669.09 M279.13 768.95 C299.06 751.02 314.79 731.07 368.70 668.22 M279.19 770.08 C299.10 746.71 319.88 723.15 366.39 669.60 M278.07 782.01 C311.00 744.79 339.53 712.08 375.83 668.29 M280.58 778.74 C314.28 740.29 349.27 700.17 375.98 669.31 M285.66 780.13 C309.19 752.19 338.31 721.78 384.95 670.22 M286.58 782.00 C318.19 743.32 349.05 709.66 383.47 671.13 M297.94 780.45 C314.11 760.55 337.05 734.06 390.22 668.23 M295.13 781.04 C316.72 754.87 340.70 727.47 392.11 669.65 M302.87 779.93 C342.13 737.58 378.04 693.26 399.95 669.38 M304.24 780.76 C340.64 736.32 377.48 692.85 399.10 670.64 M312.15 778.29 C332.94 756.07 356.67 727.72 406.03 672.24 M311.65 779.87 C335.61 750.21 363.69 718.67 406.98 669.17 M321.12 778.02 C344.39 752.13 373.19 721.17 417.79 670.79 M319.39 781.44 C357.77 735.01 397.05 692.08 414.03 670.97 M325.78 782.65 C365.87 739.10 400.41 693.29 422.48 670.44 M327.03 780.73 C356.44 747.49 386.41 711.12 422.29 668.67 M336.98 781.07 C371.28 743.54 401.25 703.48 433.62 671.39 M334.62 779.62 C365.21 747.24 393.18 713.92 431.30 670.62 M343.81 783.14 C381.08 737.48 417.47 694.96 440.31 667.84 M343.77 780.99 C373.62 741.95 406.60 704.41 437.75 671.52 M353.45 777.83 C376.97 749.71 404.88 718.82 447.28 667.95 M349.94 779.80 C371.93 755.68 391.69 733.00 446.11 670.28 M360.13 780.07 C387.50 742.74 422.64 707.30 452.31 670.69 M357.49 779.89 C379.31 752.99 402.74 726.94 454.35 668.61 M365.61 780.67 C399.09 738.66 433.38 704.40 460.82 671.52 M366.57 779.62 C388.81 757.27 411.86 732.59 461.55 669.10 M376.10 781.98 C410.04 737.90 450.35 691.59 468.92 672.89 M374.16 780.30 C398.21 756.25 419.48 730.10 470.45 670.98 M380.57 778.42 C400.60 760.83 418.76 737.25 480.33 671.29 M383.16 780.05 C421.42 738.46 460.70 693.38 477.79 669.19 M392.49 780.89 C412.28 758.32 430.59 735.25 487.06 669.57 M389.46 779.35 C412.10 755.22 436.24 728.43 485.69 668.78 M396.86 778.69 C428.06 743.76 464.68 704.81 494.34 667.74 M398.93 781.53 C437.10 737.57 475.51 693.22 494.34 670.90 M406.39 782.60 C432.88 750.43 454.88 720.85 504.48 671.53 M406.60 780.55 C439.57 742.32 472.75 702.70 502.68 669.49 M416.48 779.33 C452.31 737.95 490.50 693.64 508.28 672.02 M415.94 779.22 C451.23 734.96 490.22 690.51 509.46 670.86 M419.90 782.02 C453.73 749.94 478.41 716.57 516.62 668.38 M421.31 781.67 C453.84 746.02 483.88 707.82 519.68 670.93 M428.92 779.10 C455.97 750.50 482.38 721.59 523.86 669.92 M430.08 780.69 C452.75 754.15 474.42 729.77 526.13 669.30 M436.34 783.01 C464.10 753.08 493.00 717.83 536.52 671.01 M438.99 782.04 C468.82 746.16 498.96 711.03 535.16 668.64 M446.52 780.80 C468.76 752.66 490.22 726.82 542.22 669.90 M445.52 779.60 C468.14 758.52 488.65 734.74 542.66 669.12 M455.49 781.09 C475.05 754.77 503.09 722.11 551.88 669.87 M454.58 780.63 C482.55 745.18 513.68 710.51 550.97 671.63 M462.89 783.27 C493.88 738.82 531.76 700.55 560.77 671.84 M462.38 779.97 C494.85 744.63 523.40 711.36 559.30 668.42 M468.84 779.67 C502.16 743.88 534.98 707.61 565.04 668.07 M468.74 779.69 C499.22 746.26 530.01 710.95 566.19 669.66 M477.69 778.19 C504.37 747.61 534.54 711.43 576.38 670.27 M477.88 780.33 C499.82 756.22 518.46 734.33 574.39 670.73 M483.72 782.01 C503.61 759.47 524.95 735.67 582.63 669.63 M485.52 780.89 C524.11 738.57 558.71 697.27 582.14 670.44 M494.23 781.29 C528.97 738.50 564.00 701.90 587.12 668.72 M493.59 781.13 C516.17 759.88 534.60 734.44 590.36 669.98 M504.12 783.22 C532.35 745.56 563.17 708.67 600.56 671.37 M502.84 781.53 C529.45 747.36 559.52 711.46 597.20 670.62 M510.05 779.49 C530.56 754.06 552.63 729.25 604.32 667.94 M510.30 780.93 C544.52 741.73 577.88 702.26 604.76 670.88 M516.31 778.22 C545.27 746.35 572.54 717.82 612.78 671.80 M519.18 781.14 C539.73 754.02 562.72 726.89 614.13 668.80 M523.33 780.75 C561.25 742.90 593.54 701.21 619.81 671.01 M524.61 779.98 C552.97 750.57 576.00 722.83 620.90 670.29 M531.18 781.81 C556.86 755.47 573.46 733.94 630.50 667.85 M532.49 780.48 C556.48 753.74 576.75 729.75 629.97 669.27 M539.34 779.94 C564.95 749.85 590.48 723.41 635.67 669.63 M542.38 781.13 C574.29 741.04 605.48 703.41 637.04 670.02 M546.86 781.38 C571.85 753.60 593.62 731.61 646.19 669.29 M549.05 780.48 C571.68 756.34 592.00 731.36 646.12 669.88 M555.43 778.76 C592.64 735.34 632.75 695.69 656.26 669.76 M556.71 780.36 C591.40 737.00 629.68 695.18 653.73 670.38 M566.31 781.14 C598.42 741.06 634.21 702.75 663.32 668.30 M566.04 780.30 C601.38 739.35 636.58 700.15 660.38 669.34 M575.40 783.35 C594.15 750.69 621.97 726.99 668.18 671.57 M572.10 779.78 C602.28 748.59 631.50 715.06 669.27 671.05 M581.41 779.21 C605.75 757.38 626.73 731.69 674.83 672.49 M582.19 781.00 C605.66 755.53 629.10 726.79 677.60 670.88 M589.52 778.69 C618.84 740.91 654.50 704.19 682.68 672.72 M588.69 780.20 C613.88 753.08 638.64 725.10 684.24 670.17 M597.10 781.95 C630.33 744.49 662.33 705.53 691.94 670.77 M598.18 781.63 C615.43 755.13 636.95 732.96 692.24 669.15 M605.67 782.24 C637.00 744.70 668.89 709.80 703.83 671.43 M604.04 780.20 C635.48 747.45 663.30 714.62 701.95 671.65 M612.16 779.18 C639.63 749.55 664.46 723.95 706.77 670.09 M612.80 781.10 C645.42 743.96 677.85 705.83 708.44 668.68 M623.19 779.82 C651.32 746.67 680.33 710.45 718.15 671.57 M621.87 780.60 C653.05 742.16 684.58 707.20 716.58 669.23 M627.25 780.13 C665.77 736.49 702.15 698.41 723.43 670.66 M629.56 779.12 C651.54 755.69 676.06 729.53 724.92 668.95 M639.25 781.09 C672.75 738.91 708.36 696.10 734.67 670.93 M637.54 779.78 C674.28 739.27 710.94 697.52 732.32 669.73 M642.45 783.12 C679.93 741.22 715.38 697.37 743.77 668.30 M644.50 780.87 C682.45 738.41 719.23 696.64 741.65 670.96 M655.33 779.82 C679.60 752.46 698.08 725.46 747.47 669.89 M651.46 780.07 C678.62 748.26 706.51 717.27 749.65 669.58 M659.74 777.85 C696.11 746.58 723.59 709.43 759.21 668.91 M661.19 781.10 C682.16 753.77 706.29 726.49 756.00 670.66 M667.77 779.42 C705.23 738.51 738.37 694.90 766.88 669.13 M669.49 781.14 C707.83 737.61 742.73 696.49 764.39 670.67 M674.91 782.34 C696.47 757.83 715.14 736.23 775.04 669.16 M675.68 780.05 C712.75 739.27 746.89 697.51 771.53 669.06 M682.15 779.34 C713.25 748.73 743.50 713.93 782.72 671.93 M685.07 781.81 C711.38 750.46 742.00 715.92 779.90 670.09 M690.60 778.74 C715.53 754.85 737.87 731.49 788.79 667.16 M693.74 779.50 C717.26 751.21 742.93 721.67 789.03 670.28 M698.93 777.48 C726.80 746.35 753.61 715.53 795.42 670.66 M699.92 780.98 C731.26 747.37 761.12 713.28 797.60 670.38 M711.49 780.06 C732.50 752.72 752.76 727.13 802.27 667.55 M707.85 780.86 C740.24 745.92 769.20 713.17 805.92 671.25 M716.61 778.99 C739.92 751.20 765.91 724.69 812.25 672.23 M717.31 779.53 C753.11 741.63 787.50 702.91 811.86 670.04 M722.75 779.24 C761.83 735.15 798.41 693.54 822.72 668.53 M724.64 780.43 C750.23 751.36 775.97 723.55 818.83 669.78 M733.50 782.58 C761.17 749.73 782.52 718.50 822.79 679.45 M731.35 781.99 C761.35 749.62 787.71 717.80 820.39 679.81 M742.23 780.22 C772.59 742.61 802.04 708.32 819.91 690.66 M740.09 779.52 C769.57 746.46 799.82 711.40 821.26 689.08 M748.59 780.05 C772.21 750.83 795.63 726.23 818.83 696.52 M748.74 780.60 C767.42 759.04 785.84 739.15 820.38 696.06 M756.42 778.80 C780.03 759.57 799.37 735.28 818.96 705.17 M755.28 780.70 C770.54 763.90 783.21 748.03 819.45 707.56 M762.31 778.06 C779.06 766.27 792.76 752.58 822.50 718.13 M763.05 781.42 C783.35 755.64 803.47 734.35 821.24 716.37 M773.27 781.82 C793.07 756.40 807.47 736.04 820.68 725.81 M771.82 780.34 C786.26 764.22 799.34 747.80 821.31 724.00 M778.44 778.92 C793.97 764.30 809.53 746.89 821.29 734.57 M780.27 780.82 C791.79 768.36 804.01 754.33 820.19 734.96 M786.19 782.38 C797.11 767.42 812.75 753.47 817.48 746.11 M788.05 781.65 C795.50 770.38 804.10 761.69 820.07 743.86 M795.92 778.21 C801.30 770.27 813.06 761.63 820.90 750.95 M795.43 781.29 C805.10 769.37 813.50 759.63 820.13 752.03 M803.80 779.74 C810.94 773.55 813.69 767.09 819.24 763.85 M804.96 779.62 C809.64 772.17 818.00 765.06 818.83 763.11 M811.74 779.08 C815.33 776.82 818.95 772.45 820.43 771.94 M812.79 780.85 C814.73 777.10 818.82 773.32 820.32 771.44" stroke="#dcfce7" stroke-width="1" fill="none" stroke-linecap="round"/>
      <path d="M280.37 669.12 C442.02 667.45 603.22 667.29 820.07 669.87 M280.40 669.68 C476.23 669.57 672.41 669.93 819.54 670.39 M821.44 668.20 C820.88 697.98 818.75 730.36 822.02 781.85 M818.89 668.84 C820.99 712.03 819.19 753.77 819.58 779.60 M819.27 780.06 C705.65 782.74 592.62 781.58 279.93 778.92 M819.82 779.86 C683.91 780.81 546.54 780.53 279.91 780.35 M282.78 779.19 C276.01 745.23 277.04 715.94 280.28 671.42 M278.98 779.87 C281.55 756.59 281.14 731.68 281.03 669.51" stroke="#15803d" stroke-width="1.5" fill="none" stroke-linecap="round" stroke-linejoin="round"/>
<text x="550" y="682" font-family="Inter, 'Comic Sans MS', system-ui, sans-serif" font-size="16" font-weight="600" fill="#15803d" text-anchor="middle" dominant-baseline="hanging"><tspan x="550" dy="0">Recovered</tspan></text>
<text x="298" y="712" font-family="Inter, 'Comic Sans MS', system-ui, sans-serif" font-size="13" font-weight="400" fill="#1e293b" text-anchor="start" dominant-baseline="hanging"><tspan x="298" dy="0">Stripe Smart Retries finally worked, or Sarah updated her card.</tspan><tspan x="298" dy="16.25">She gets &quot;Your payment is back on track&quot; and the banner disappears.</tspan></text>
<path d="M280.28 875.68 C280.28 875.68 280.28 875.68 280.28 875.68 M280.28 875.68 C280.28 875.68 280.28 875.68 280.28 875.68 M280.76 885.75 C281.88 881.29 285.28 879.62 287.35 877.12 M280.56 884.25 C282.17 881.57 285.63 879.14 287.96 875.85 M281.54 891.72 C286.69 888.68 292.11 883.01 293.70 875.82 M280.10 894.06 C285.47 886.27 292.09 880.46 297.00 876.90 M282.20 904.08 C285.40 898.15 294.88 890.69 302.16 874.03 M278.77 902.51 C288.72 893.06 295.74 882.61 302.68 877.05 M281.08 911.39 C289.13 896.97 303.47 882.95 308.85 875.59 M279.72 913.91 C292.00 898.45 303.57 885.34 310.20 876.40 M279.79 921.76 C292.87 908.14 303.37 898.07 318.38 875.29 M279.98 923.15 C290.38 911.47 298.23 900.46 321.25 874.73 M282.40 929.58 C287.49 917.00 302.02 909.21 325.62 876.55 M280.35 931.51 C295.11 916.74 305.90 901.00 328.33 875.36 M280.31 940.49 C295.00 923.83 305.08 911.47 335.32 875.34 M279.66 939.11 C300.40 918.46 317.72 893.94 336.80 877.25 M279.11 948.68 C297.77 926.37 317.15 905.43 344.32 877.02 M278.88 949.93 C299.39 929.32 317.69 906.36 342.46 876.06 M277.86 956.23 C293.06 940.93 305.54 926.47 352.95 877.72 M280.93 958.63 C297.51 938.85 314.31 918.54 350.99 876.08 M279.79 966.53 C296.14 949.48 313.35 931.94 358.42 875.51 M281.47 966.05 C312.05 932.29 341.06 897.27 358.35 874.46 M280.14 978.57 C303.98 949.70 326.19 921.08 368.89 876.81 M280.07 977.44 C311.39 941.39 341.77 907.18 367.23 875.70 M280.15 987.82 C301.89 957.17 326.65 927.80 374.45 873.94 M279.90 986.18 C306.18 954.28 333.03 921.95 375.84 875.96 M287.76 989.04 C312.69 963.60 332.47 935.57 385.87 877.71 M286.50 986.09 C308.52 961.76 329.11 938.80 382.71 875.66 M296.06 988.22 C321.19 957.70 346.48 930.58 392.08 874.40 M294.40 985.93 C323.79 955.03 350.53 923.05 392.71 876.81 M304.72 988.10 C329.79 955.09 358.32 926.53 401.28 873.32 M303.80 987.51 C332.67 951.34 364.61 917.71 399.01 877.05 M314.18 987.56 C340.99 954.09 372.56 916.49 407.26 876.80 M311.69 984.86 C338.70 956.82 363.26 928.46 406.39 877.14 M318.49 987.94 C351.51 950.63 384.32 913.51 413.69 877.38 M319.61 985.60 C341.47 960.41 366.11 934.34 415.94 875.00 M324.88 988.26 C353.15 953.94 380.99 920.89 425.22 876.36 M327.69 986.27 C346.16 962.33 367.98 937.09 422.77 877.04 M336.00 985.17 C366.61 950.99 402.12 911.01 430.18 877.22 M334.64 987.37 C355.93 961.88 378.65 937.02 431.93 874.36 M343.86 988.73 C374.08 953.02 404.09 915.15 438.87 874.32 M342.53 986.42 C377.33 950.21 410.56 910.47 438.86 874.68 M348.91 985.00 C383.02 947.42 416.46 911.85 447.12 876.18 M351.69 986.47 C380.10 952.66 410.94 918.33 445.80 874.76 M356.33 989.18 C386.25 955.95 412.74 927.25 452.11 877.37 M359.35 987.30 C393.87 944.15 427.48 905.01 453.40 875.53 M364.77 987.63 C404.08 946.29 443.18 902.20 463.79 873.58 M366.25 987.40 C404.99 944.67 440.32 903.19 463.35 874.36 M373.84 985.45 C407.29 947.62 441.19 910.89 470.31 878.37 M375.31 986.34 C412.18 943.64 450.28 900.85 470.01 874.52 M380.79 985.82 C406.98 958.69 433.09 927.50 479.99 873.55 M383.69 987.68 C408.00 957.93 433.09 928.41 479.60 877.29 M391.26 988.99 C412.56 961.29 433.70 939.10 486.77 876.38 M390.40 986.47 C414.58 958.75 440.47 929.11 487.84 877.42 M395.90 986.68 C432.37 945.52 467.27 907.07 492.15 876.93 M399.06 987.06 C424.95 956.33 452.76 926.29 493.10 875.78 M406.76 985.24 C433.73 955.42 463.22 922.37 501.90 873.46 M406.37 986.83 C429.37 961.71 451.72 936.29 502.51 876.65 M411.56 988.82 C448.98 943.50 490.93 898.70 511.05 875.18 M413.33 985.62 C440.24 955.45 466.11 926.85 511.02 876.19 M424.22 986.42 C454.83 950.96 488.24 915.47 520.78 877.87 M422.20 986.47 C444.89 959.62 470.54 932.55 519.16 875.50 M427.96 985.40 C453.24 955.52 480.56 931.11 528.98 877.81 M431.00 985.46 C450.49 964.13 470.08 940.32 526.14 877.52 M439.62 984.36 C465.70 954.93 495.59 915.95 532.59 873.60 M438.65 986.22 C465.11 953.41 492.16 922.88 533.14 875.86 M447.18 984.21 C485.66 943.32 520.59 897.90 543.96 876.30 M445.06 986.97 C477.84 950.96 511.29 915.48 542.47 875.90 M454.01 987.22 C475.67 959.27 500.08 931.94 550.61 875.83 M453.04 987.61 C477.07 961.41 499.21 935.08 549.16 876.25 M464.42 987.59 C485.20 956.69 509.95 929.56 557.30 875.35 M463.20 986.97 C482.08 963.74 500.94 941.90 557.40 874.82 M468.72 985.37 C503.85 949.39 535.79 912.62 568.24 874.42 M469.86 985.30 C504.81 947.80 538.31 907.13 566.60 875.52 M476.78 984.52 C514.87 946.57 548.22 903.19 576.05 878.43 M478.79 986.13 C510.21 949.57 541.67 909.70 573.93 874.93 M486.27 984.42 C505.50 964.25 525.71 939.42 583.23 876.16 M486.27 987.57 C513.27 954.91 539.80 924.97 582.79 874.56 M496.87 986.53 C527.45 946.10 563.28 904.48 588.13 874.21 M494.31 987.19 C524.18 953.54 553.07 921.58 591.23 875.81 M500.86 985.95 C536.69 945.87 565.42 907.12 595.20 874.51 M500.84 987.27 C522.42 963.25 545.50 939.20 597.55 875.33 M511.18 986.19 C536.98 953.33 563.05 923.97 603.33 878.92 M509.13 985.53 C531.28 962.02 554.66 936.24 605.06 874.97 M518.41 985.16 C553.20 945.60 589.55 903.54 613.72 874.25 M518.08 985.97 C543.89 957.66 569.90 927.66 614.18 876.21 M526.70 988.17 C548.63 960.14 570.90 932.82 620.55 874.16 M525.48 987.74 C553.03 954.20 581.82 922.39 621.13 877.05 M536.54 984.45 C569.28 945.91 601.99 908.05 627.80 878.01 M532.77 986.61 C571.55 943.60 609.07 900.77 630.09 876.67 M543.71 986.36 C568.71 955.25 592.93 929.98 639.84 873.59 M542.28 987.25 C567.53 957.13 591.60 926.70 637.83 875.12 M547.77 985.38 C585.15 944.30 625.67 898.96 646.98 878.13 M548.43 986.90 C567.87 964.46 589.36 940.82 645.52 876.16 M556.62 985.69 C590.88 945.80 626.49 906.05 652.97 875.66 M557.38 987.62 C594.55 946.29 627.59 906.57 654.94 874.77 M563.68 986.29 C605.28 940.84 641.89 899.57 662.87 878.56 M566.55 986.61 C585.38 965.49 603.57 941.13 663.03 874.98 M572.58 988.47 C603.37 953.27 635.97 914.78 668.99 878.01 M573.56 987.44 C605.16 948.55 637.37 913.47 669.83 876.38 M582.19 987.29 C604.89 961.61 627.85 934.62 678.01 877.50 M580.43 985.71 C613.08 950.51 644.24 914.25 678.52 875.16 M586.63 986.43 C613.22 957.02 636.16 929.88 683.09 874.27 M589.06 987.76 C610.93 959.05 635.13 934.21 686.86 876.05 M599.52 984.14 C626.22 951.33 658.58 920.99 690.91 876.11 M596.99 987.93 C631.03 946.58 666.06 907.85 692.78 876.55 M606.53 985.46 C628.07 956.49 650.81 932.71 702.12 874.09 M604.25 987.47 C632.92 955.22 657.63 925.53 702.41 875.85 M612.03 988.19 C640.65 953.49 671.29 922.70 710.33 876.18 M614.77 985.79 C651.56 943.78 686.33 900.78 710.49 875.88 M622.31 986.48 C660.97 942.51 696.25 902.84 718.44 878.22 M620.58 985.15 C647.38 954.90 673.28 926.83 716.37 877.16 M630.58 984.80 C667.94 941.87 704.72 901.93 724.16 876.88 M628.48 987.54 C658.26 952.73 687.79 917.56 724.46 876.11 M636.11 988.53 C664.80 955.86 688.64 922.49 733.08 878.04 M638.14 986.35 C664.06 957.85 689.82 928.93 734.49 875.88 M643.74 986.11 C671.13 950.32 704.38 918.45 741.80 877.98 M644.06 987.40 C678.16 947.39 709.94 908.90 739.74 877.07 M651.73 988.23 C683.98 950.54 720.05 907.85 751.03 877.36 M652.35 987.67 C684.65 948.21 717.13 912.87 748.09 877.36 M660.17 983.85 C693.53 948.57 721.34 918.81 757.34 876.63 M660.81 986.93 C692.83 952.39 721.71 917.84 757.95 876.44 M669.96 984.90 C700.77 951.91 729.40 924.77 766.21 873.19 M667.32 986.03 C697.29 949.47 729.20 916.19 765.35 875.67 M676.80 986.11 C705.07 952.96 738.56 911.38 775.20 876.19 M677.40 985.59 C709.89 948.21 742.95 911.30 773.33 877.16 M684.67 983.58 C713.09 957.95 738.84 927.22 781.41 875.71 M685.12 986.01 C715.25 951.18 745.12 916.24 779.40 875.04 M690.87 988.75 C717.80 961.07 736.43 937.87 789.42 878.14 M694.12 987.20 C729.23 944.80 764.72 903.85 787.22 875.15 M702.84 987.17 C733.73 947.22 768.91 906.42 799.56 877.13 M701.86 987.63 C736.40 941.28 777.00 897.39 797.40 876.86 M706.37 986.10 C745.41 941.74 786.82 902.02 806.99 875.99 M709.45 986.80 C734.45 959.40 761.64 929.79 804.66 877.00 M718.99 987.51 C734.20 961.74 756.00 937.73 810.08 877.24 M717.20 987.35 C743.29 956.54 769.82 927.49 811.49 875.87 M724.60 985.26 C752.50 952.28 777.73 922.15 820.63 877.05 M723.31 986.35 C753.09 955.78 778.38 924.22 819.78 875.60 M735.09 985.48 C747.40 965.44 767.72 949.50 821.96 884.42 M733.25 985.52 C752.99 962.87 772.85 939.63 819.29 884.97 M741.75 986.95 C770.62 955.42 798.81 918.76 822.16 896.53 M741.60 985.38 C757.67 968.91 774.58 950.32 819.48 895.96 M745.61 988.47 C774.13 957.50 795.72 932.77 818.15 903.33 M749.39 988.06 C763.93 969.02 779.13 952.05 821.63 904.70 M756.95 987.86 C772.51 964.48 790.63 945.17 821.98 914.53 M757.63 987.58 C769.67 968.39 783.23 952.43 820.95 911.67 M766.32 987.47 C782.59 967.12 804.80 944.76 820.55 920.20 M764.51 987.74 C782.57 966.35 800.76 944.39 819.04 921.11 M769.79 983.88 C786.27 971.03 803.05 950.42 822.03 932.47 M773.48 985.79 C781.26 975.05 794.69 963.47 820.96 930.67 M779.12 984.54 C792.52 970.37 807.61 954.51 821.78 939.73 M779.22 987.47 C791.78 970.14 806.71 954.24 820.39 941.28 M787.75 984.45 C799.08 972.86 813.29 959.19 818.21 951.39 M786.41 986.13 C798.94 975.37 809.23 962.03 819.22 949.80 M795.46 984.69 C801.66 977.53 812.54 966.09 821.17 959.48 M796.24 985.18 C805.40 975.73 815.59 966.04 821.61 957.94 M804.63 983.99 C809.74 977.53 815.12 972.48 822.98 966.61 M805.06 986.51 C809.30 979.56 816.53 973.81 819.97 967.65 M813.67 987.50 C815.49 982.57 817.62 980.14 820.36 978.47 M811.29 986.79 C813.28 983.78 816.67 983.06 819.73 977.00" stroke="#fee2e2" stroke-width="1" fill="none" stroke-linecap="round"/>
      <path d="M281.07 875.06 C444.59 877.05 608.01 878.38 819.18 876.06 M280.02 876.02 C449.94 876.26 619.56 876.80 820.45 875.73 M822.43 877.79 C819.77 918.39 822.60 957.76 819.98 985.95 M821.24 875.86 C822.26 917.39 819.80 957.87 820.80 985.94 M819.71 985.25 C667.87 985.93 514.57 985.03 280.19 985.19 M820.14 986.01 C623.19 988.09 424.91 988.12 280.44 986.26 M281.94 988.74 C277.50 955.27 277.92 919.88 280.00 874.51 M278.92 986.18 C280.01 944.39 279.67 900.41 279.26 875.55" stroke="#b91c1c" stroke-width="1.5" fill="none" stroke-linecap="round" stroke-linejoin="round"/>
<text x="550" y="888" font-family="Inter, 'Comic Sans MS', system-ui, sans-serif" font-size="16" font-weight="600" fill="#b91c1c" text-anchor="middle" dominant-baseline="hanging"><tspan x="550" dy="0">Stripe gave up</tspan></text>
<text x="298" y="918" font-family="Inter, 'Comic Sans MS', system-ui, sans-serif" font-size="13" font-weight="400" fill="#1e293b" text-anchor="start" dominant-baseline="hanging"><tspan x="298" dy="0">Her subscription is canceled.</tspan><tspan x="298" dy="16.25">She gets the &quot;Your subscription has been paused&quot; email.</tspan></text>
<path d="M239.02 801.84 C252.68 794.46 262.42 779.82 277.12 768.53 M239.25 804.76 C248.37 794.09 258.21 786.03 276.52 768.40" stroke="#15803d" stroke-width="1.5" fill="none" stroke-linecap="round" stroke-linejoin="round"/>
      <path d="M276.13 767.42 C275.56 771.09 274.09 773.95 272.50 777.67 M276.21 767.77 C275.54 769.84 274.56 772.39 272.72 777.18" stroke="#15803d" stroke-width="1.5" fill="none" stroke-linecap="round" stroke-linejoin="round"/>
      <path d="M276.51 768.59 C272.45 768.89 270.10 770.65 267.08 771.64 M276.01 767.95 C272.57 769.47 269.10 770.68 266.47 771.29" stroke="#15803d" stroke-width="1.5" fill="none" stroke-linecap="round" stroke-linejoin="round"/>
<path d="M238.76 854.22 C249.96 862.15 263.66 874.95 276.18 889.74 M239.26 852.51 C251.22 864.12 264.06 876.05 275.18 888.94" stroke="#b91c1c" stroke-width="1.5" fill="none" stroke-linecap="round" stroke-linejoin="round"/>
      <path d="M276.07 888.52 C272.48 887.54 269.82 886.38 266.13 885.23 M276.21 887.71 C273.15 887.24 270.55 886.51 266.84 884.58" stroke="#b91c1c" stroke-width="1.5" fill="none" stroke-linecap="round" stroke-linejoin="round"/>
      <path d="M276.45 888.49 C274.61 885.21 273.83 881.59 272.99 878.00 M276.02 887.89 C275.45 885.90 274.37 883.44 272.87 878.69" stroke="#b91c1c" stroke-width="1.5" fill="none" stroke-linecap="round" stroke-linejoin="round"/>
  </g>
</svg>
