<?xml version="1.0" encoding="UTF-8"?>
<svg xmlns="http://www.w3.org/2000/svg" viewBox="0 0 840 980" width="840" height="980" role="img" aria-label="Payment recovery journey">
  <rect width="840" height="980" fill="#ffffff"/>
  <g>
<text x="420" y="18" font-family="Inter, 'Comic Sans MS', system-ui, sans-serif" font-size="20" font-weight="600" fill="#1e293b" text-anchor="middle" dominant-baseline="hanging"><tspan x="420" dy="0">The journey, end to end</tspan></text>
<path d="M269.80 70.23 C269.80 70.23 269.80 70.23 269.80 70.23 M269.80 70.23 C269.80 70.23 269.80 70.23 269.80 70.23 M271.16 79.43 C270.81 76.63 274.23 72.80 278.72 70.99 M269.42 79.45 C272.83 76.79 273.25 74.60 278.05 70.07 M271.45 89.44 C275.97 84.37 281.55 77.55 285.69 68.66 M271.33 87.31 C272.96 84.09 277.82 81.48 285.64 71.04 M269.33 98.08 C278.24 90.30 280.57 84.02 295.69 71.15 M269.46 97.11 C275.71 90.39 280.41 86.36 293.75 69.32 M269.41 108.80 C281.39 97.51 289.61 90.55 301.84 67.81 M268.86 107.52 C282.33 93.80 294.47 79.49 300.56 68.77 M269.05 113.10 C285.73 99.44 297.17 85.26 308.19 72.07 M269.60 116.73 C277.76 105.68 289.06 92.81 308.84 69.09 M271.88 126.57 C282.53 107.24 294.85 93.17 317.64 71.45 M270.29 124.90 C285.45 109.55 297.75 90.18 316.94 69.95 M271.20 131.08 C288.10 113.21 305.65 96.14 324.60 67.44 M271.67 131.05 C288.87 111.29 306.17 91.94 324.74 68.91 M278.85 134.06 C292.66 117.05 306.26 102.05 333.96 71.35 M279.60 130.70 C301.39 107.19 324.13 83.49 333.66 69.97 M289.25 132.02 C304.22 113.89 315.35 98.95 342.60 71.43 M286.52 131.32 C299.82 119.51 311.62 105.86 341.39 70.28 M296.70 134.23 C308.33 114.41 321.66 103.49 349.39 71.73 M296.43 131.22 C316.36 107.78 337.84 83.67 349.82 69.64 M301.88 133.71 C314.76 115.75 329.43 103.51 356.86 72.15 M303.97 131.14 C320.09 112.59 336.96 95.72 357.50 70.27 M311.07 133.93 C322.53 114.76 337.83 100.43 366.68 71.96 M312.62 133.10 C323.66 118.24 336.55 103.74 364.22 70.47 M320.55 129.91 C333.40 113.59 348.01 96.78 373.40 68.46 M319.68 131.21 C338.71 110.45 356.93 88.49 372.37 68.98 M330.05 132.31 C339.48 117.79 348.45 104.61 382.36 71.64 M328.95 130.32 C345.66 110.13 363.93 89.72 380.34 69.88 M338.30 131.72 C353.11 112.23 370.53 90.70 389.60 72.33 M335.82 131.27 C354.39 108.45 371.41 88.76 389.66 70.41 M342.29 130.92 C362.72 113.34 381.25 87.96 399.75 68.06 M342.54 132.47 C362.86 108.45 382.66 86.39 398.37 68.58 M349.68 131.58 C363.24 118.31 373.49 107.73 402.98 67.32 M351.63 131.99 C363.72 116.47 377.48 102.69 405.19 70.41 M357.95 131.14 C373.88 113.57 391.62 98.71 415.30 70.69 M358.42 132.87 C371.60 119.09 382.26 106.27 414.13 69.56 M370.05 133.68 C377.49 119.06 387.55 106.52 418.59 67.66 M367.23 130.27 C388.38 106.24 409.26 82.75 421.33 69.51 M375.95 133.75 C386.42 120.62 400.04 104.33 426.63 69.94 M375.03 131.77 C389.71 116.64 400.93 99.99 428.56 70.66 M382.69 129.14 C403.08 113.77 418.52 89.47 438.63 67.31 M382.57 132.32 C405.52 108.01 424.91 83.73 438.01 71.03 M390.39 132.69 C408.17 110.78 421.32 97.05 446.91 68.35 M391.99 131.72 C404.81 115.03 418.76 100.74 443.83 69.23 M396.60 132.80 C410.37 117.64 421.42 108.72 452.08 67.46 M397.87 132.96 C419.96 108.07 440.02 81.63 452.16 70.74 M409.16 129.46 C428.56 107.92 446.84 85.16 461.82 72.57 M407.72 130.78 C422.81 112.92 438.34 95.49 460.96 69.45 M413.74 132.20 C434.29 110.58 456.49 88.15 470.11 68.41 M415.80 130.50 C434.19 111.47 451.92 89.10 469.33 69.77 M423.49 130.71 C432.24 120.70 447.51 105.51 475.19 70.37 M424.00 132.84 C438.07 116.06 450.88 98.33 476.44 69.15 M429.85 131.93 C445.18 117.34 457.46 101.50 484.43 72.82 M429.74 133.17 C444.11 116.05 455.76 101.14 485.78 70.82 M438.37 133.79 C453.60 112.81 474.32 92.02 492.42 70.11 M438.60 131.73 C455.60 112.43 472.27 93.07 492.20 69.86 M447.47 134.27 C458.64 121.31 468.52 107.16 494.13 81.86 M446.58 132.88 C464.77 109.61 483.04 88.88 491.61 81.34 M453.33 130.06 C468.44 117.74 479.30 101.48 491.60 91.64 M455.43 132.69 C464.82 120.61 472.94 112.69 491.04 88.79 M462.25 131.28 C467.71 123.48 475.33 117.15 490.65 96.66 M463.24 132.23 C466.90 125.65 472.88 117.88 490.68 99.60 M469.84 130.32 C473.54 125.92 481.84 119.47 489.49 105.58 M470.94 131.68 C476.70 124.32 481.70 120.05 492.70 107.81 M476.76 129.65 C482.19 126.47 486.04 119.53 490.91 119.20 M478.94 131.47 C482.02 129.80 485.18 126.38 490.35 117.03 M486.66 131.31 C488.70 131.36 489.70 130.16 490.55 126.16 M487.03 132.10 C488.28 129.94 490.01 127.67 491.46 126.02" stroke="#ccfbf1" stroke-width="1" fill="none" stroke-linecap="round"/>
      <path d="M271.33 68.01 C314.96 69.53 364.06 67.31 490.60 69.10 M270.15 69.20 C357.08 68.23 444.20 70.11 491.20 69.77 M487.66 67.73 C489.74 85.15 486.93 99.82 489.70 127.87 M490.91 69.98 C488.34 87.13 488.23 104.44 488.71 131.08 M488.55 129.14 C428.16 133.63 364.92 132.65 269.81 129.32 M489.77 130.62 C416.09 130.45 342.87 131.67 270.38 129.66 M269.58 130.93 C269.46 108.57 267.21 88.47 267.51 69.11 M270.36 129.32 C268.39 115.77 270.51 98.76 270.80 69.66" stroke="#0d9488" stroke-width="1.5" fill="none" stroke-linecap="round" stroke-linejoin="round"/>
<text x="380" y="91" font-family="Inter, 'Comic Sans MS', system-ui, sans-serif" font-size="15" font-weight="600" fill="#0d9488" text-anchor="middle" dominant-baseline="hanging"><tspan x="380" dy="0">Customer renewal date</tspan></text>
<path d="M378.03 127.89 C377.91 138.83 379.54 148.56 378.68 169.51 M379.34 129.92 C379.06 144.93 380.31 158.67 380.73 170.75" stroke="#334155" stroke-width="1.5" fill="none" stroke-linecap="round" stroke-linejoin="round"/>
      <path d="M379.89 169.44 C378.72 167.77 378.05 165.62 376.05 160.97 M380.24 170.16 C378.94 167.47 377.64 164.83 375.73 160.82" stroke="#334155" stroke-width="1.5" fill="none" stroke-linecap="round" stroke-linejoin="round"/>
      <path d="M380.27 169.40 C380.74 167.47 381.91 166.07 384.25 161.07 M380.04 169.74 C381.18 167.83 381.95 165.73 384.30 161.07" stroke="#334155" stroke-width="1.5" fill="none" stroke-linecap="round" stroke-linejoin="round"/>
<path d="M269.93 220.08 C269.93 220.08 269.93 220.08 269.93 220.08 M269.93 220.08 C269.93 220.08 269.93 220.08 269.93 220.08 M275.04 223.00 C278.07 221.66 278.69 218.35 281.32 216.17 M275.24 222.93 C277.42 221.66 277.86 220.26 281.70 215.33 M284.18 226.49 C284.96 223.32 289.07 220.37 295.53 211.78 M282.28 223.02 C286.72 220.31 291.18 216.19 294.23 212.00 M288.30 226.83 C295.68 218.72 304.27 209.69 305.47 206.25 M288.39 225.65 C292.85 220.49 297.51 215.58 306.03 206.81 M291.59 226.65 C304.52 221.01 309.51 211.50 315.44 204.18 M293.97 229.94 C300.76 221.08 309.91 212.41 317.34 201.66 M300.52 232.06 C308.12 219.43 318.39 210.65 329.16 196.67 M301.75 229.73 C311.44 219.27 321.29 205.51 329.80 196.96 M306.20 231.43 C316.10 221.26 325.93 209.66 342.13 193.45 M307.39 233.26 C316.57 219.50 327.88 207.54 339.73 194.61 M312.01 233.78 C325.03 223.30 339.67 204.31 354.00 192.46 M312.06 236.51 C324.90 218.93 341.48 203.32 350.91 191.43 M317.99 238.59 C332.72 218.09 353.00 197.13 365.62 187.51 M318.60 239.34 C329.49 223.55 343.45 208.69 362.44 186.91 M323.08 237.55 C335.86 225.08 355.06 207.05 374.17 182.58 M324.69 238.86 C342.72 219.11 360.30 197.75 375.84 182.14 M331.83 240.40 C352.09 219.78 372.95 194.82 384.73 178.98 M330.18 242.68 C342.49 227.37 353.31 215.56 386.17 178.17 M336.97 245.67 C353.64 222.71 376.92 201.35 397.22 170.18 M335.74 245.29 C358.28 220.00 380.27 196.02 397.63 172.36 M343.55 248.94 C363.19 229.58 380.14 208.55 412.93 167.49 M342.40 246.25 C361.59 222.33 382.07 198.39 409.84 167.21 M351.13 248.39 C374.82 215.55 402.90 187.59 420.21 168.33 M347.11 247.25 C375.75 217.69 401.19 188.99 420.89 165.39 M355.93 251.85 C374.10 232.71 387.57 213.15 428.38 165.91 M353.81 252.35 C378.99 220.78 405.83 192.16 426.93 168.14 M360.31 255.11 C378.20 235.50 394.79 213.45 431.55 171.12 M359.86 254.60 C377.95 233.39 394.11 210.66 434.30 170.70 M366.70 257.63 C386.40 234.88 400.56 212.75 439.33 171.59 M367.38 256.07 C389.62 227.28 413.90 198.30 439.00 171.76 M370.27 257.57 C392.00 234.43 418.06 207.58 444.30 172.63 M372.43 257.33 C397.38 226.96 425.57 198.59 445.33 173.88 M377.90 258.95 C397.28 240.30 416.57 218.94 448.36 175.60 M378.96 260.40 C394.28 238.39 412.07 218.39 449.37 175.86 M384.72 260.30 C397.51 245.39 415.87 224.18 456.61 176.73 M385.87 260.30 C404.15 239.38 424.77 216.22 456.04 178.65 M392.75 263.00 C411.88 236.39 433.60 210.37 464.47 179.04 M389.46 263.20 C410.07 243.94 428.27 220.43 462.57 180.47 M398.96 264.38 C413.12 250.15 427.67 228.82 470.98 182.64 M396.00 265.55 C410.88 249.68 426.49 233.72 469.75 182.60 M402.03 266.75 C426.92 240.85 452.71 214.33 477.82 184.61 M401.07 270.21 C431.77 237.60 456.67 206.09 474.53 186.47 M410.21 267.97 C425.37 254.60 439.30 236.44 479.87 187.33 M407.97 271.41 C424.22 254.33 438.86 236.31 480.87 186.62 M414.47 270.48 C440.86 244.70 469.55 209.29 486.93 191.55 M415.46 273.64 C441.37 243.09 464.47 215.79 487.14 189.09 M421.40 274.40 C436.85 251.99 461.17 227.69 491.27 194.31 M421.91 276.43 C435.00 258.87 448.95 241.45 493.46 191.07 M432.25 268.63 C448.81 248.13 470.73 224.17 497.86 196.19 M433.04 272.41 C457.29 240.71 483.53 210.68 500.46 193.90 M443.62 264.88 C466.26 237.10 491.24 215.29 503.16 199.23 M445.06 267.47 C465.84 241.55 490.66 214.31 505.46 196.77 M457.76 260.93 C469.83 243.69 481.45 228.25 511.19 200.01 M455.59 262.23 C470.61 247.07 482.55 231.29 512.26 198.26 M466.42 256.29 C479.67 244.69 493.56 228.41 518.51 197.94 M466.39 259.32 C483.31 237.62 500.32 219.87 516.74 200.50 M476.34 253.36 C493.18 240.14 503.29 225.11 524.47 200.81 M478.72 254.80 C494.45 238.46 508.28 221.03 521.95 203.50 M490.47 252.05 C501.38 235.91 516.20 219.42 527.65 203.85 M490.57 249.68 C502.90 236.80 513.42 221.72 529.63 205.30 M502.16 243.56 C511.55 236.55 524.91 220.35 535.41 207.19 M502.78 245.05 C512.74 231.40 526.19 219.24 535.04 208.32 M515.57 238.62 C517.97 233.39 524.15 225.78 541.01 209.21 M513.42 242.40 C520.19 233.64 528.79 224.71 541.09 208.44 M526.37 235.01 C530.41 226.89 542.50 219.07 549.89 212.82 M524.43 237.83 C534.02 227.67 540.95 219.28 547.48 212.60 M539.51 232.09 C542.08 224.47 547.82 222.17 553.78 215.68 M536.17 233.75 C542.47 227.60 548.10 221.38 553.53 213.67 M550.25 226.09 C553.26 227.47 552.43 220.38 558.12 215.88 M549.08 229.26 C552.18 225.23 554.67 221.36 559.27 215.75 M561.74 223.17 C562.47 221.64 564.35 219.40 565.31 219.00 M560.91 224.18 C562.11 221.83 563.86 220.91 565.16 218.43" stroke="#ffffff" stroke-width="1" fill="none" stroke-linecap="round"/>
      <path d="M417.41 167.66 C453.31 181.62 488.41 189.92 567.37 220.84 M419.24 164.62 C450.56 177.91 480.82 190.27 569.28 218.71 M571.60 220.90 C534.29 230.63 498.64 244.39 422.76 276.48 M569.10 221.25 C530.34 234.72 491.28 249.33 420.82 274.65 M417.21 277.14 C360.86 255.66 309.32 231.05 272.34 221.88 M420.15 274.42 C362.14 255.50 303.61 233.19 270.16 218.74 M271.80 218.31 C326.19 203.48 384.31 179.56 421.99 163.66 M270.11 220.57 C319.49 200.50 367.94 183.73 419.35 164.83" stroke="#334155" stroke-width="1.5" fill="none" stroke-linecap="round" stroke-linejoin="round"/>
<text x="420" y="206" font-family="Inter, 'Comic Sans MS', system-ui, sans-serif" font-size="14" font-weight="600" fill="#1e293b" text-anchor="middle" dominant-baseline="hanging"><tspan x="420" dy="0">Stripe charges</tspan><tspan x="420" dy="17.5">the card</tspan></text>
<path d="M569.29 222.14 C586.00 221.03 602.38 220.42 640.63 221.12 M570.95 220.40 C594.04 218.87 619.85 220.29 638.94 219.87" stroke="#15803d" stroke-width="1.5" fill="none" stroke-linecap="round" stroke-linejoin="round"/>
      <path d="M640.20 220.50 C637.76 221.06 635.45 221.55 630.67 224.72 M640.04 220.28 C637.47 221.17 634.63 222.96 631.21 224.55" stroke="#15803d" stroke-width="1.5" fill="none" stroke-linecap="round" stroke-linejoin="round"/>
      <path d="M640.58 220.47 C637.82 218.63 635.35 217.81 631.39 216.14 M639.84 219.86 C637.75 218.61 635.63 218.04 631.10 215.52" stroke="#15803d" stroke-width="1.5" fill="none" stroke-linecap="round" stroke-linejoin="round"/>
<text x="605" y="204" font-family="Inter, 'Comic Sans MS', system-ui, sans-serif" font-size="12" font-weight="600" fill="#15803d" text-anchor="middle" dominant-baseline="hanging"><tspan x="605" dy="0">Success</tspan></text>
<path d="M639.83 185.19 C639.83 185.19 639.83 185.19 639.83 185.19 M639.83 185.19 C639.83 185.19 639.83 185.19 639.83 185.19 M639.85 195.75 C641.55 191.17 643.40 189.26 646.25 185.34 M640.31 193.88 C642.88 190.92 645.25 187.38 647.88 185.63 M637.47 201.96 C644.83 199.93 647.83 189.02 655.85 186.92 M638.72 204.31 C643.18 199.20 650.50 193.41 655.62 185.06 M641.60 211.60 C647.82 203.18 657.57 196.42 662.70 182.28 M641.66 213.02 C648.19 201.64 656.67 191.43 662.96 185.24 M641.91 219.72 C649.93 214.56 656.91 202.94 674.22 184.94 M641.61 221.98 C650.22 211.51 659.33 201.86 670.90 184.54 M641.41 230.13 C651.75 215.67 662.71 203.74 681.83 185.91 M640.50 230.25 C655.37 215.69 667.46 200.00 679.67 183.87 M638.10 240.19 C657.92 216.87 674.78 196.77 687.48 186.14 M639.28 239.90 C656.16 221.04 672.96 203.02 688.98 184.35 M640.58 251.69 C658.69 225.61 680.84 203.89 696.39 186.02 M640.20 248.77 C652.90 235.83 663.30 221.00 695.66 185.28 M643.58 254.25 C664.85 231.89 684.66 206.75 702.39 186.86 M641.24 256.32 C663.45 231.60 683.83 204.90 704.74 184.25 M651.57 256.77 C665.96 235.71 685.90 215.73 714.18 185.97 M649.11 254.50 C668.58 232.34 688.64 210.30 710.35 186.25 M661.28 254.23 C675.45 232.51 692.93 211.67 720.65 187.53 M658.26 253.40 C672.90 238.01 686.78 223.15 720.28 185.21 M664.72 255.16 C688.25 228.40 711.99 200.84 725.99 182.67 M665.76 254.18 C689.66 227.34 710.92 202.58 728.97 186.10 M676.90 252.87 C692.11 237.28 711.31 215.31 734.11 186.52 M675.86 253.92 C696.88 230.13 719.34 203.21 735.99 184.66 M680.92 256.86 C696.60 239.00 715.86 219.93 742.31 186.56 M682.16 256.09 C705.05 231.62 724.58 205.23 744.69 185.75 M691.21 256.09 C705.61 234.86 722.13 217.02 753.62 185.20 M690.87 256.28 C712.03 231.01 734.04 203.59 749.95 185.81 M696.33 252.33 C721.63 229.37 741.66 207.48 761.60 185.57 M697.90 254.54 C719.65 231.04 738.70 206.54 758.64 186.64 M707.72 255.15 C727.57 231.68 752.74 202.38 766.00 185.48 M706.05 256.07 C725.02 234.13 743.71 212.61 766.74 185.30 M711.41 255.44 C736.63 226.08 759.30 203.35 776.65 183.78 M713.79 254.55 C732.41 235.62 750.16 212.45 776.50 186.00 M722.33 254.10 C737.35 237.53 750.70 223.89 782.00 187.42 M721.19 255.28 C739.29 234.98 757.06 216.04 782.39 186.28 M727.82 255.35 C745.16 238.09 754.17 226.81 792.23 184.09 M730.14 255.96 C751.12 231.05 774.23 207.86 791.14 186.08 M736.33 256.15 C749.26 239.65 764.07 227.62 799.55 186.00 M739.06 255.72 C755.08 236.48 772.65 214.86 799.43 185.34 M745.94 253.38 C764.51 236.28 783.32 217.61 804.52 185.70 M745.72 255.34 C757.33 241.30 771.24 225.25 808.28 184.70 M753.91 255.65 C775.86 231.89 798.46 204.34 812.53 185.58 M753.19 255.14 C772.88 235.76 791.33 213.48 814.63 185.60 M761.08 254.97 C782.69 229.85 810.27 202.09 818.37 190.39 M760.94 256.07 C773.56 241.05 784.31 229.27 820.30 188.49 M767.89 257.27 C790.98 232.19 808.68 207.91 818.82 198.27 M771.30 253.89 C778.81 242.84 790.36 231.32 820.10 196.45 M775.51 252.25 C793.94 234.89 805.62 218.41 821.52 206.11 M777.27 255.20 C789.82 241.94 802.59 229.69 821.09 206.67 M785.18 256.86 C800.24 243.06 808.37 227.37 818.78 213.95 M786.26 253.89 C796.98 243.74 806.77 229.75 819.92 216.19 M793.69 257.19 C803.99 245.70 810.60 236.03 821.80 227.70 M793.89 255.53 C801.95 244.91 809.69 236.50 819.46 224.79 M800.63 255.74 C805.96 248.08 815.78 236.87 820.33 230.90 M801.67 254.79 C807.24 246.16 816.68 237.85 819.90 233.26 M807.76 254.39 C811.97 252.10 817.22 247.82 820.19 241.60 M810.67 255.86 C811.94 250.66 815.19 249.60 819.38 241.63 M818.19 254.90 C817.72 254.38 818.72 253.91 820.79 251.74 M817.60 254.95 C818.53 253.75 819.57 252.79 820.45 251.71" stroke="#dcfce7" stroke-width="1" fill="none" stroke-linecap="round"/>
      <path d="M638.88 187.01 C685.34 182.99 728.54 187.87 819.64 187.72 M641.11 185.18 C677.47 186.04 714.84 186.28 819.99 185.48 M819.95 183.47 C818.77 201.03 821.97 218.74 820.23 254.49 M820.10 184.71 C818.95 201.21 819.19 218.15 820.13 256.01 M821.70 254.68 C772.41 258.59 723.77 257.18 639.29 253.95 M820.56 255.92 C778.65 255.27 734.40 254.27 639.88 255.67 M638.41 256.29 C642.52 240.24 641.02 224.11 640.88 183.20 M639.87 254.02 C638.39 226.94 638.32 200.44 640.70 184.99" stroke="#15803d" stroke-width="1.5" fill="none" stroke-linecap="round" stroke-linejoin="round"/>
<text x="730" y="199" font-family="Inter, 'Comic Sans MS', system-ui, sans-serif" font-size="13" font-weight="400" fill="#1e293b" text-anchor="middle" dominant-baseline="hanging"><tspan x="730" dy="0">Renewal done.</tspan><tspan x="730" dy="16.25">Nothing else.</tspan></text>
<path d="M420.56 276.59 C420.50 288.19 418.59 297.39 417.78 317.93 M420.16 275.87 C419.48 291.86 420.16 308.76 419.54 318.99" stroke="#b91c1c" stroke-width="1.5" fill="none" stroke-linecap="round" stroke-linejoin="round"/>
      <path d="M420.52 320.36 C419.13 317.84 417.42 315.75 415.83 310.57 M419.84 319.80 C418.78 317.20 417.27 314.62 415.43 310.98" stroke="#b91c1c" stroke-width="1.5" fill="none" stroke-linecap="round" stroke-linejoin="round"/>
      <path d="M419.70 320.33 C421.46 317.58 421.90 315.05 424.03 310.68 M420.24 319.98 C421.15 317.58 422.44 314.93 424.60 311.23" stroke="#b91c1c" stroke-width="1.5" fill="none" stroke-linecap="round" stroke-linejoin="round"/>
<text x="434" y="285" font-family="Inter, 'Comic Sans MS', system-ui, sans-serif" font-size="12" font-weight="600" fill="#b91c1c" text-anchor="start" dominant-baseline="hanging"><tspan x="434" dy="0">Failure</tspan></text>
<path d="M239.74 330.30 C239.74 330.30 239.74 330.30 239.74 330.30 M239.74 330.30 C239.74 330.30 239.74 330.30 239.74 330.30 M240.92 338.07 C241.91 335.64 246.73 330.67 249.36 329.00 M239.80 339.57 C242.60 337.18 245.40 333.51 248.69 329.03 M239.16 347.51 C243.76 346.83 246.40 338.86 258.62 328.08 M241.09 347.90 C243.96 342.83 249.24 340.40 256.90 329.70 M242.63 355.99 C245.13 349.64 253.44 342.56 261.10 331.07 M239.85 357.20 C245.35 349.99 251.00 344.93 263.85 330.82 M240.24 365.60 C252.25 352.37 258.95 345.99 272.51 328.34 M240.08 366.83 C247.66 357.99 253.85 350.68 272.36 330.06 M242.48 373.47 C253.09 361.41 261.00 350.61 277.94 327.66 M239.44 376.03 C251.07 363.40 263.81 348.03 278.57 331.69 M241.70 387.43 C250.15 373.13 259.71 361.04 290.09 328.31 M240.07 385.02 C257.04 365.14 271.88 346.39 287.09 329.18 M241.14 395.69 C260.46 371.45 284.62 342.14 294.38 330.14 M240.34 392.73 C255.55 378.55 267.76 361.33 296.00 329.70 M241.82 400.84 C258.90 377.22 284.17 353.98 304.29 332.24 M239.34 404.22 C254.34 386.34 268.01 368.90 303.77 330.42 M239.91 409.64 C263.07 386.30 283.22 364.98 312.07 330.87 M241.78 409.38 C261.09 388.07 279.33 367.06 311.11 329.07 M247.27 411.07 C265.28 388.93 280.14 371.33 319.02 332.31 M248.48 409.93 C268.01 387.93 286.62 368.09 319.66 328.46 M258.25 409.94 C279.42 390.03 294.28 367.02 325.44 328.35 M258.77 411.14 C273.48 392.17 287.02 375.07 328.19 330.24 M264.19 408.44 C284.92 386.08 310.63 358.26 335.51 328.63 M266.05 410.42 C283.56 390.49 299.88 369.94 336.77 330.79 M273.88 408.02 C295.19 383.03 319.16 356.45 341.66 330.43 M274.78 410.42 C298.94 381.31 322.28 354.89 342.95 328.96 M282.09 410.90 C303.41 387.44 322.38 365.57 348.54 332.42 M280.72 410.78 C307.05 380.86 334.20 349.17 351.04 331.40 M290.26 409.49 C305.05 389.06 327.48 369.37 360.68 328.68 M288.25 411.62 C306.82 390.41 322.12 371.80 360.41 328.46 M299.75 408.51 C316.31 386.59 334.46 363.58 369.61 331.82 M295.72 411.90 C315.69 389.64 335.04 365.61 368.62 331.29 M307.84 410.66 C326.53 386.37 344.88 364.08 372.77 329.64 M304.83 409.11 C322.51 391.91 341.62 372.40 374.24 330.03 M314.49 408.87 C341.47 378.83 367.13 346.31 383.03 330.61 M313.95 409.78 C334.59 385.91 357.74 359.01 382.81 330.86 M321.61 413.03 C338.72 392.14 354.05 374.46 388.34 329.93 M322.31 411.44 C337.14 391.50 350.33 376.13 389.54 329.19 M328.63 408.60 C345.96 388.58 366.59 363.86 398.10 328.86 M329.00 410.33 C348.80 384.64 368.59 361.22 399.75 328.92 M334.08 409.55 C362.89 381.09 386.03 352.94 405.15 332.52 M336.61 409.49 C351.21 392.35 367.73 374.07 408.30 330.56 M345.64 407.61 C358.13 391.53 376.84 375.81 413.03 331.82 M345.17 408.74 C360.22 392.70 375.66 378.07 414.91 330.02 M350.49 412.14 C379.78 380.46 410.95 348.24 420.34 329.36 M352.45 410.91 C366.59 393.12 381.35 376.11 423.19 329.06 M362.16 412.41 C373.44 390.72 388.60 374.28 428.62 329.87 M359.61 410.88 C379.10 388.95 396.70 369.32 430.96 328.71 M368.51 411.91 C385.36 389.51 402.82 366.95 437.85 332.56 M368.72 410.20 C392.17 383.17 416.69 358.02 437.60 328.51 M375.99 410.42 C395.88 389.94 412.89 369.35 445.80 329.75 M377.35 409.10 C393.70 391.21 407.83 374.97 445.50 330.92 M385.57 410.31 C403.03 385.34 422.59 363.82 454.74 332.77 M384.53 410.00 C400.76 391.78 417.74 372.37 453.35 329.40 M394.86 412.42 C416.76 382.19 441.13 355.56 461.84 329.65 M393.50 409.24 C413.71 387.97 435.57 363.50 462.70 330.51 M402.03 411.14 C418.24 387.56 437.39 363.76 469.24 329.58 M400.92 411.77 C427.93 377.53 456.18 347.09 471.76 329.89 M410.23 410.87 C432.87 379.80 460.61 346.04 476.74 329.96 M407.57 409.93 C427.07 387.31 446.47 366.00 478.68 329.70 M418.03 411.72 C433.63 394.51 443.73 378.89 483.92 329.13 M416.35 411.12 C438.71 383.75 462.28 355.91 487.01 330.43 M426.13 412.97 C447.03 379.59 472.62 352.68 494.10 332.62 M425.76 409.12 C449.09 382.89 469.99 356.19 494.97 331.56 M431.06 411.76 C458.36 384.99 477.97 359.77 502.55 329.69 M431.20 410.85 C447.16 392.41 460.92 375.78 503.95 329.14 M437.54 412.15 C463.86 383.85 492.19 351.30 511.70 327.54 M440.79 410.47 C456.57 390.78 471.77 374.04 510.50 330.51 M449.55 410.06 C467.39 388.00 487.54 363.06 516.41 330.49 M448.87 410.74 C467.82 387.93 484.87 369.58 517.50 329.23 M454.66 407.93 C474.90 387.96 491.88 370.34 524.67 329.37 M457.44 411.11 C472.30 395.19 484.24 377.14 526.14 330.99 M462.52 407.81 C486.87 382.99 515.38 355.44 534.10 329.25 M463.48 409.33 C487.70 382.67 511.79 356.90 532.61 329.53 M472.41 409.22 C496.99 383.08 517.92 359.50 544.69 329.48 M471.97 409.07 C500.57 378.01 526.78 346.52 542.97 328.77 M480.46 411.66 C501.13 389.77 519.95 365.24 548.79 327.21 M479.93 411.31 C508.41 378.43 534.19 348.35 549.72 330.93 M489.67 408.65 C513.40 380.38 539.82 347.06 558.39 327.23 M487.12 409.84 C515.07 379.13 541.88 345.44 558.40 329.64 M497.05 410.82 C519.45 380.09 543.86 351.36 567.04 328.65 M496.45 411.54 C521.82 382.82 544.38 356.55 566.94 328.88 M501.29 408.20 C519.07 391.50 536.57 370.11 573.91 333.02 M502.69 411.39 C529.33 380.21 556.61 350.66 574.99 331.49 M512.34 410.10 C536.51 381.18 563.22 347.12 582.58 327.16 M512.50 409.91 C529.10 391.20 546.18 369.97 583.31 329.10 M522.21 411.15 C543.20 385.81 565.73 355.85 588.18 328.63 M518.70 411.53 C540.28 386.72 563.74 359.69 588.67 330.81 M528.97 410.63 C553.41 381.87 573.93 359.50 596.28 331.27 M529.13 410.28 C552.57 381.88 575.99 355.21 597.70 329.77 M537.94 410.30 C561.04 384.65 582.92 355.70 599.22 334.27 M534.86 411.53 C549.49 395.56 560.42 382.19 599.72 335.13 M544.12 413.11 C554.06 397.08 564.70 383.97 599.20 343.53 M545.13 411.10 C566.04 387.97 585.45 364.46 598.89 346.82 M550.18 409.88 C566.42 389.84 581.78 373.83 601.41 356.02 M552.77 411.40 C571.37 387.67 589.80 365.99 600.98 353.93 M557.52 408.97 C568.99 395.47 581.78 383.65 598.34 363.18 M560.90 409.18 C569.38 398.40 579.49 388.73 601.12 364.81 M567.41 411.82 C577.57 400.35 588.65 390.14 601.38 373.56 M567.94 408.83 C576.34 399.00 585.23 391.09 600.72 373.70 M574.67 411.59 C583.54 401.05 591.85 387.97 599.77 379.67 M574.57 409.94 C586.09 400.03 596.41 388.00 600.61 382.25 M585.64 407.84 C592.49 402.45 597.45 396.44 601.44 388.44 M582.72 409.39 C588.60 403.91 595.86 393.68 599.17 390.82 M591.62 409.51 C591.63 406.87 595.45 406.50 600.51 401.61 M590.96 409.83 C593.46 406.64 595.97 403.85 599.91 400.43 M599.85 410.02 C599.86 409.77 600.11 409.60 600.32 409.15 M599.69 410.07 C599.96 409.81 600.19 409.55 600.39 409.29" stroke="#f1f5f9" stroke-width="1" fill="none" stroke-linecap="round"/>
      <path d="M240.23 330.87 C337.45 327.59 431.37 329.48 601.21 329.37 M240.12 330.46 C318.08 326.83 397.82 326.37 600.44 329.65 M598.29 331.64 C599.40 350.70 599.99 371.35 597.70 407.50 M601.09 330.98 C600.41 349.43 600.82 367.06 599.44 409.58 M600.37 408.24 C474.24 410.54 346.21 411.32 241.17 411.02 M600.62 409.76 C496.75 409.05 395.82 410.32 239.74 409.87 M240.63 408.67 C242.38 387.94 238.45 368.75 239.76 327.75 M239.63 410.27 C240.89 389.17 241.13 369.27 239.24 330.16" stroke="#334155" stroke-width="1.5" fill="none" stroke-linecap="round" stroke-linejoin="round"/>
<text x="420" y="344" font-family="Inter, 'Comic Sans MS', system-ui, sans-serif" font-size="13" font-weight="400" fill="#1e293b" text-anchor="middle" dominant-baseline="hanging"><tspan x="420" dy="0">First failure detected</tspan><tspan x="420" dy="16.25">Classify hard or soft. Mark subscription past due.</tspan></text>
<path d="M421.82 411.03 C421.83 415.94 418.14 425.06 419.72 439.54 M419.36 408.94 C421.07 420.21 419.06 431.07 420.14 440.50" stroke="#334155" stroke-width="1.5" fill="none" stroke-linecap="round" stroke-linejoin="round"/>
      <path d="M419.63 440.22 C419.33 437.90 417.10 435.25 415.11 430.98 M420.24 439.92 C418.75 437.39 417.14 433.93 415.58 430.76" stroke="#334155" stroke-width="1.5" fill="none" stroke-linecap="round" stroke-linejoin="round"/>
      <path d="M420.01 440.19 C420.62 437.60 421.89 434.51 424.51 431.08 M420.04 440.09 C421.19 437.73 422.44 434.80 424.15 431.01" stroke="#334155" stroke-width="1.5" fill="none" stroke-linecap="round" stroke-linejoin="round"/>
<path d="M240.11 449.88 C240.11 449.88 240.11 449.88 240.11 449.88 M240.11 449.88 C240.11 449.88 240.11 449.88 240.11 449.88 M238.90 458.43 C244.19 456.77 246.30 451.30 248.08 448.75 M239.73 459.71 C242.08 456.60 244.87 453.36 248.58 450.19 M239.99 469.04 C244.69 465.39 250.31 456.49 255.60 450.06 M239.81 467.46 C246.73 460.94 253.31 455.22 255.18 449.57 M237.87 475.60 C246.98 466.54 258.56 459.30 264.90 449.48 M240.65 476.60 C246.29 468.79 253.83 460.64 264.55 451.63 M238.39 486.71 C248.21 477.20 254.08 471.96 271.26 451.79 M241.15 486.91 C250.42 472.17 263.04 459.66 271.48 450.03 M237.76 497.63 C248.82 482.17 265.08 472.28 280.12 449.47 M240.99 497.04 C250.80 483.34 261.57 473.70 280.74 451.17 M239.51 504.29 C251.78 492.25 263.60 477.15 286.91 451.30 M240.66 505.37 C257.72 485.80 273.40 466.32 287.81 449.23 M242.17 514.15 C249.60 497.61 264.46 484.91 297.78 449.47 M240.95 513.95 C256.68 494.71 273.31 475.32 296.15 449.34 M237.55 524.47 C260.72 500.68 279.30 480.41 306.66 452.09 M240.52 523.58 C260.14 499.97 278.91 478.22 303.27 451.06 M241.52 528.67 C263.68 511.06 282.02 485.12 310.42 450.23 M242.12 530.42 C256.08 512.81 272.91 495.60 312.35 449.15 M247.87 532.57 C271.79 502.96 300.72 475.84 322.15 447.46 M250.51 531.12 C266.86 507.08 287.89 484.90 318.19 450.49 M255.18 529.36 C282.11 506.24 304.14 475.75 324.70 449.26 M257.97 529.95 C274.68 511.42 291.07 489.82 327.22 449.59 M264.75 530.16 C288.78 505.48 313.23 479.91 336.73 451.56 M263.92 530.28 C286.63 504.44 307.73 480.49 334.55 449.33 M274.52 530.94 C285.66 511.38 304.18 495.40 341.47 448.77 M272.27 530.91 C297.93 502.77 322.54 473.63 344.47 449.44 M281.30 531.10 C299.65 507.72 319.07 484.12 349.52 448.49 M281.72 530.68 C308.21 499.38 334.84 469.52 352.60 448.66 M287.58 531.29 C313.74 503.01 343.62 473.28 358.90 447.77 M290.39 530.55 C313.73 502.28 335.94 474.49 358.53 449.04 M295.17 532.12 C326.94 501.43 354.35 466.83 367.43 447.78 M297.19 529.59 C312.41 510.22 329.63 492.48 367.50 449.69 M306.36 532.04 C329.71 501.94 360.42 467.32 374.95 449.97 M303.56 529.84 C332.77 500.71 359.44 468.50 375.24 448.51 M314.34 529.80 C334.48 503.93 362.75 470.12 384.54 448.27 M311.58 530.44 C336.19 504.32 359.98 477.30 383.70 449.92 M318.80 529.76 C337.35 512.82 351.59 496.41 390.51 450.24 M320.67 531.58 C342.41 506.72 362.18 481.01 391.20 449.57 M329.92 531.29 C357.61 502.37 382.21 467.07 396.46 452.54 M327.92 529.60 C348.99 505.17 371.23 480.09 399.89 450.51 M336.81 530.37 C353.52 511.68 369.92 493.23 405.59 448.96 M336.50 531.10 C352.82 511.12 367.20 492.84 405.33 451.64 M345.06 531.34 C361.45 512.11 381.66 489.96 413.99 446.93 M344.82 531.30 C367.02 504.96 391.29 478.77 415.66 448.90 M353.18 529.87 C380.58 498.11 405.79 465.96 425.76 451.41 M351.64 531.92 C367.55 513.55 384.31 496.42 423.93 449.92 M359.83 532.21 C378.81 512.46 391.79 491.41 432.67 449.53 M359.70 529.73 C384.49 505.46 406.70 479.79 430.47 449.02 M370.51 530.63 C395.33 500.83 416.64 473.55 440.57 450.51 M369.17 529.85 C395.45 497.85 424.06 465.79 437.70 450.26 M374.49 530.15 C397.79 501.87 419.14 475.15 445.74 451.71 M376.13 530.48 C399.65 503.81 424.14 475.99 446.79 449.02 M385.14 529.59 C403.75 513.16 416.51 490.49 453.36 452.30 M382.85 530.63 C411.03 499.11 438.29 470.28 455.73 448.48 M391.83 528.91 C414.53 511.53 428.30 486.38 461.82 451.17 M393.67 531.89 C410.36 512.17 425.81 493.21 463.97 450.53 M400.22 532.64 C416.98 506.15 438.84 487.32 473.21 451.18 M399.97 532.09 C421.93 506.36 445.43 480.12 470.89 448.96 M409.20 531.82 C429.79 505.99 452.92 477.90 477.70 451.44 M406.82 529.69 C432.41 504.41 454.74 476.39 477.67 451.12 M417.62 529.82 C440.76 501.85 465.89 479.11 489.36 449.06 M415.05 531.51 C431.12 512.44 449.70 494.26 486.00 448.89 M425.88 533.68 C440.84 506.08 465.62 482.62 496.96 448.16 M425.03 529.96 C438.91 513.58 454.43 497.71 494.25 448.80 M434.80 531.31 C461.52 499.89 486.18 470.99 502.40 447.43 M433.29 529.46 C451.69 509.60 470.73 484.84 501.65 451.20 M438.29 531.43 C457.46 508.12 478.60 489.23 510.71 449.15 M441.33 530.31 C460.25 510.67 479.11 487.70 510.10 449.51 M447.93 531.43 C467.53 511.98 480.77 491.12 520.43 450.47 M447.17 531.61 C463.38 513.90 481.81 495.11 519.39 449.59 M457.64 529.23 C475.24 507.66 495.11 487.09 528.04 448.72 M456.94 532.02 C481.22 500.79 506.72 470.24 526.73 448.43 M464.93 528.60 C486.44 508.39 502.14 488.65 531.91 447.66 M464.78 530.84 C482.88 510.62 499.68 491.05 535.50 448.89 M472.53 530.37 C496.36 505.90 517.67 479.01 539.98 447.78 M473.28 530.54 C489.49 512.30 505.96 494.70 541.27 448.63 M478.27 530.36 C495.46 515.88 513.00 492.37 551.30 452.54 M478.50 530.49 C504.63 501.96 526.59 474.67 548.90 449.21 M485.67 529.27 C508.09 511.28 527.93 487.74 560.47 451.30 M488.11 531.28 C517.20 498.72 544.12 467.23 558.11 451.61 M493.80 530.50 C521.70 497.61 548.86 466.75 564.82 449.75 M495.21 531.25 C511.71 511.59 530.61 489.14 567.09 450.40 M505.19 530.71 C529.69 501.41 549.79 474.21 571.21 451.00 M505.01 531.04 C523.66 504.59 545.06 481.35 574.32 449.75 M510.15 528.89 C529.18 504.91 555.51 482.74 584.05 448.69 M511.49 530.10 C538.52 501.94 563.45 471.85 582.72 451.10 M519.71 530.62 C540.99 507.57 560.59 482.50 589.70 452.81 M518.29 531.01 C545.60 498.17 574.10 468.51 590.24 449.56 M527.49 529.19 C551.97 500.47 583.58 466.50 597.92 452.28 M526.55 530.47 C545.89 512.69 563.68 491.36 597.02 449.73 M533.80 530.41 C551.06 513.52 566.30 494.65 601.19 454.99 M535.79 530.10 C559.90 503.29 583.25 473.88 604.52 454.02 M544.37 529.96 C561.72 505.93 585.26 487.45 604.61 461.10 M543.32 532.07 C559.94 512.91 575.85 493.86 602.70 461.17 M551.97 530.82 C567.49 513.23 580.66 498.94 601.37 468.63 M550.33 531.37 C570.93 510.12 589.41 487.56 602.15 470.49 M560.86 533.56 C573.66 514.46 590.41 495.38 600.38 479.88 M558.97 529.93 C575.51 511.92 591.90 491.42 602.15 479.91 M568.35 531.42 C580.66 513.18 594.78 497.85 601.71 490.14 M567.16 531.75 C574.98 521.93 583.20 512.28 603.20 490.16 M575.43 531.64 C578.56 523.70 589.15 513.62 603.82 495.89 M574.35 529.29 C586.02 519.94 595.02 507.77 602.30 498.99 M585.20 528.10 C585.47 522.59 592.02 521.20 604.68 509.35 M581.89 532.13 C589.63 521.54 598.53 514.18 603.10 508.79 M593.53 530.84 C593.24 526.06 597.95 518.52 601.20 517.99 M590.22 530.75 C596.36 526.86 598.57 519.73 603.29 516.95 M598.99 531.81 C599.78 530.50 601.09 529.34 602.53 526.42 M598.89 531.00 C599.73 529.16 601.59 527.39 603.86 526.06" stroke="#f1f5f9" stroke-width="1" fill="none" stroke-linecap="round"/>
      <path d="M241.16 450.46 C341.25 452.58 443.88 453.28 599.10 450.56 M239.53 450.81 C320.63 451.17 402.89 450.09 600.88 450.77 M602.23 449.22 C597.87 472.88 601.47 494.00 600.77 531.12 M599.29 449.44 C599.66 467.41 600.25 483.29 598.75 530.94 M599.67 530.22 C511.84 533.74 423.37 532.67 239.25 529.17 M600.88 530.71 C479.08 529.66 359.30 529.28 239.56 529.32 M237.25 531.65 C240.02 508.43 239.27 482.76 238.64 447.30 M239.39 528.72 C238.45 504.31 238.99 478.92 240.59 450.33" stroke="#334155" stroke-width="1.5" fill="none" stroke-linecap="round" stroke-linejoin="round"/>
<text x="420" y="464" font-family="Inter, 'Comic Sans MS', system-ui, sans-serif" font-size="13" font-weight="400" fill="#1e293b" text-anchor="middle" dominant-baseline="hanging"><tspan x="420" dy="0">Send email. Show banner.</tspan><tspan x="420" dy="16.25">Add Sarah to the &quot;In dunning&quot; list.</tspan></text>
<path d="M418.29 530.48 C418.30 537.30 422.44 545.35 421.67 561.15 M420.97 529.42 C421.16 541.39 421.26 551.66 420.75 559.62" stroke="#334155" stroke-width="1.5" fill="none" stroke-linecap="round" stroke-linejoin="round"/>
      <path d="M419.95 560.09 C418.33 556.76 417.98 554.74 415.60 551.38 M420.04 560.03 C418.62 556.94 416.89 553.80 415.74 551.14" stroke="#334155" stroke-width="1.5" fill="none" stroke-linecap="round" stroke-linejoin="round"/>
      <path d="M420.33 560.05 C420.98 557.68 423.09 555.22 423.80 551.48 M419.84 560.21 C421.12 557.28 422.33 554.67 424.30 550.78" stroke="#334155" stroke-width="1.5" fill="none" stroke-linecap="round" stroke-linejoin="round"/>
<path d="M239.82 570.20 C239.82 570.20 239.82 570.20 239.82 570.20 M239.82 570.20 C239.82 570.20 239.82 570.20 239.82 570.20 M239.69 579.44 C242.61 575.21 245.75 572.23 246.88 571.80 M239.02 578.93 C241.39 578.04 242.71 574.95 246.83 569.61 M240.83 590.57 C242.61 587.42 248.21 581.04 258.84 571.28 M238.53 589.83 C243.75 582.87 251.49 577.24 256.93 568.67 M239.36 594.45 C244.76 588.12 254.89 580.56 263.76 572.74 M239.31 598.04 C248.65 586.18 258.08 574.93 263.10 568.88 M242.79 607.06 C250.85 595.24 256.30 584.20 269.35 570.41 M240.08 606.22 C250.89 593.40 260.35 583.51 272.75 570.77 M239.29 615.44 C249.16 602.58 262.20 594.03 281.63 572.03 M240.39 614.49 C248.06 604.60 256.51 595.47 279.45 571.40 M237.98 626.00 C254.06 606.35 268.15 593.84 289.98 567.93 M239.11 624.96 C256.26 604.37 275.59 584.16 289.19 568.53 M242.54 633.37 C256.92 618.49 268.34 598.03 296.23 568.05 M240.90 633.12 C259.33 612.42 277.96 590.42 296.96 571.02 M238.22 643.27 C254.22 624.89 271.73 607.59 302.77 572.69 M241.05 643.68 C265.29 616.13 289.15 587.27 304.91 569.65 M239.50 651.03 C259.89 628.79 281.28 604.71 313.71 570.35 M241.64 649.20 C268.64 619.96 294.57 591.22 310.13 569.98 M249.12 647.71 C270.33 627.00 287.91 606.71 319.67 568.21 M250.38 651.55 C271.23 625.69 291.70 604.21 319.52 569.72 M258.36 648.03 C273.68 630.28 288.84 614.06 330.22 569.41 M257.83 650.81 C278.78 627.12 298.03 603.82 326.91 571.00 M266.63 650.37 C288.16 621.65 316.75 592.96 333.00 568.13 M265.91 651.44 C293.10 619.87 318.82 587.10 335.79 569.92 M271.52 651.60 C293.68 627.75 320.09 601.44 340.63 567.87 M274.53 649.14 C300.23 620.24 325.18 592.25 342.53 570.67 M281.17 650.56 C304.03 627.68 323.51 602.78 349.85 570.92 M280.57 649.83 C295.06 633.71 309.55 619.48 350.71 569.47 M291.16 652.34 C309.05 624.79 332.33 601.18 357.79 571.70 M290.39 651.53 C307.26 629.55 322.34 611.52 360.10 568.87 M296.85 649.38 C316.33 624.11 338.96 599.66 365.90 568.59 M296.51 649.33 C312.58 632.84 327.67 615.80 367.05 570.14 M306.19 651.91 C322.80 627.34 339.98 608.52 376.48 571.05 M306.39 651.86 C326.83 624.91 349.15 599.71 375.60 570.56 M316.15 648.47 C334.13 624.23 358.48 595.80 385.38 572.28 M313.99 648.83 C338.34 621.49 364.69 592.54 383.93 569.72 M322.25 651.33 C338.60 635.03 351.47 614.64 392.03 571.31 M322.49 650.97 C347.95 620.78 373.91 590.78 389.41 570.70 M331.87 653.24 C350.27 625.96 370.41 607.43 401.07 569.86 M330.30 650.91 C352.09 622.98 376.78 596.25 397.88 568.54 M334.59 650.43 C356.58 625.36 380.29 600.46 406.69 570.24 M337.04 651.95 C354.54 631.09 372.38 610.03 405.82 569.16 M346.44 652.80 C369.37 625.61 384.82 603.41 414.30 568.40 M346.44 648.80 C361.02 631.92 379.36 611.15 415.76 571.33 M352.24 650.95 C382.29 618.33 406.12 587.45 424.91 568.61 M352.80 650.66 C367.63 632.37 383.04 615.76 424.01 571.53 M363.76 651.26 C376.81 628.05 393.06 608.15 431.12 569.19 M360.46 650.63 C388.03 618.70 411.81 590.07 429.98 569.33 M367.56 648.60 C386.32 633.15 403.04 611.69 438.34 567.71 M367.47 651.54 C388.15 629.89 404.01 609.88 438.45 568.46 M374.29 648.37 C389.05 634.23 406.14 617.71 446.33 567.32 M376.22 650.35 C395.51 628.42 413.38 608.15 445.93 569.17 M386.68 652.21 C411.85 617.84 442.26 589.94 456.93 572.59 M385.95 649.00 C408.36 626.08 428.19 602.16 454.66 571.11 M395.05 650.25 C407.00 632.95 421.01 615.29 461.14 567.84 M391.69 650.98 C416.21 621.91 441.65 592.83 461.78 571.31 M399.07 647.79 C418.64 625.94 443.21 606.48 472.24 572.02 M399.68 651.64 C416.59 631.65 435.33 609.60 470.67 570.08 M408.83 652.02 C427.38 629.46 445.89 607.03 479.31 572.17 M409.52 651.50 C424.37 632.14 438.38 616.36 477.32 568.98 M419.18 651.26 C435.06 629.54 454.85 611.08 488.54 569.75 M415.72 649.63 C441.60 621.61 465.68 595.02 487.13 570.89 M422.01 652.12 C435.90 634.79 453.51 615.65 493.56 570.06 M423.47 651.33 C444.57 626.64 465.28 603.44 495.67 569.60 M433.59 650.11 C451.12 628.41 466.64 612.17 502.25 570.78 M433.24 650.12 C456.11 623.50 480.20 596.46 502.16 570.46 M439.70 649.96 C465.77 621.08 493.75 594.10 510.37 570.00 M439.73 649.39 C462.33 626.99 482.05 600.61 510.36 570.56 M447.62 651.29 C463.21 634.66 480.54 612.49 519.50 569.69 M446.78 650.99 C474.66 617.64 502.74 585.26 519.14 569.19 M456.99 648.27 C479.09 625.92 495.51 603.25 525.15 568.83 M455.61 650.67 C479.50 625.98 503.70 600.03 526.65 569.42 M463.72 652.72 C493.30 616.34 520.55 589.26 534.67 572.44 M465.24 650.08 C490.46 620.23 516.02 591.62 534.94 569.01 M473.30 650.76 C496.16 620.66 517.65 596.31 540.86 571.68 M472.44 651.25 C492.92 629.89 510.72 607.44 542.37 571.29 M482.34 648.31 C504.49 617.52 534.78 590.08 548.86 571.52 M480.52 651.70 C501.51 624.72 522.44 600.23 551.55 569.54 M488.58 648.38 C510.02 621.19 537.06 597.16 557.60 569.02 M487.62 651.21 C501.29 636.05 516.82 617.62 558.49 570.03 M498.12 647.91 C508.72 630.05 529.30 614.27 567.55 571.60 M495.94 648.70 C521.86 620.06 547.54 591.81 566.58 569.86 M504.14 652.47 C523.24 629.07 537.18 606.99 573.45 569.74 M505.19 649.94 C520.49 631.48 538.41 612.22 572.99 571.56 M514.22 652.52 C528.10 633.49 542.85 612.00 580.58 569.46 M511.13 649.53 C534.56 626.12 553.29 600.51 582.77 569.55 M517.86 649.34 C537.17 630.54 559.45 604.76 591.88 570.63 M518.53 649.75 C537.55 629.77 554.23 610.83 589.67 570.35 M527.98 651.08 C545.45 630.33 562.01 607.55 598.91 568.44 M528.74 651.19 C552.16 621.21 577.56 592.79 598.49 570.44 M537.22 648.25 C554.22 629.18 568.39 607.56 602.85 576.90 M535.88 649.20 C556.58 625.89 576.65 604.09 600.61 576.91 M545.28 651.66 C560.26 635.12 572.03 615.57 598.52 585.46 M544.97 649.49 C563.99 626.15 585.90 600.62 600.61 585.12 M554.42 651.01 C561.84 637.86 571.10 627.30 601.02 593.64 M551.35 650.58 C567.10 631.81 583.23 613.91 600.22 593.85 M559.92 651.04 C569.01 638.44 579.19 629.82 602.11 603.37 M558.35 651.96 C570.85 636.39 585.57 620.23 600.07 604.60 M565.65 648.76 C576.12 641.34 589.32 626.27 601.74 613.52 M568.35 649.61 C580.22 636.32 592.43 619.57 599.79 613.42 M576.86 650.94 C583.81 641.35 588.57 636.32 600.65 620.41 M574.78 650.69 C583.78 642.30 591.46 633.22 599.58 621.24 M585.42 647.60 C586.34 645.70 596.09 641.50 601.36 632.22 M584.51 651.32 C588.08 643.72 595.99 636.67 600.47 631.51 M590.85 651.48 C592.47 649.20 597.68 644.47 601.08 640.44 M590.53 651.02 C593.29 648.90 596.12 645.24 600.84 640.09 M599.04 650.56 C599.73 650.00 600.24 649.39 600.67 649.23 M599.30 650.56 C599.52 650.31 599.84 649.81 600.45 649.29" stroke="#f1f5f9" stroke-width="1" fill="none" stroke-linecap="round"/>
      <path d="M238.55 570.05 C348.60 571.19 459.94 570.70 600.54 571.75 M240.72 569.39 C323.19 567.34 407.96 567.43 599.56 570.12 M600.58 572.39 C598.58 589.46 599.58 616.65 598.23 649.13 M600.28 570.71 C598.92 601.40 599.69 631.52 600.86 649.51 M598.97 648.66 C481.00 650.57 360.08 651.18 240.86 650.86 M599.36 649.89 C461.41 648.49 322.79 648.24 239.39 650.54 M239.47 649.03 C239.90 623.31 242.32 596.78 237.52 572.45 M239.15 649.97 C241.05 619.45 241.90 588.56 239.14 570.50" stroke="#334155" stroke-width="1.5" fill="none" stroke-linecap="round" stroke-linejoin="round"/>
<text x="420" y="584" font-family="Inter, 'Comic Sans MS', system-ui, sans-serif" font-size="13" font-weight="400" fill="#1e293b" text-anchor="middle" dominant-baseline="hanging"><tspan x="420" dy="0">Stripe retries the card</tspan><tspan x="420" dy="16.25">over the next 7 days.</tspan></text>
<path d="M419.55 649.93 C419.58 658.66 421.94 670.43 418.81 677.96 M420.17 649.89 C420.52 662.58 420.33 672.24 418.95 681.14" stroke="#334155" stroke-width="1.5" fill="none" stroke-linecap="round" stroke-linejoin="round"/>
      <path d="M420.27 679.95 C418.54 676.77 417.66 674.18 416.09 670.58 M419.84 680.15 C418.59 677.13 417.36 673.72 415.89 670.92" stroke="#334155" stroke-width="1.5" fill="none" stroke-linecap="round" stroke-linejoin="round"/>
      <path d="M419.45 679.91 C421.34 677.71 423.08 674.69 424.29 670.68 M420.24 679.73 C421.05 677.48 422.22 674.60 424.45 671.16" stroke="#334155" stroke-width="1.5" fill="none" stroke-linecap="round" stroke-linejoin="round"/>
<path d="M309.92 745.09 C309.92 745.09 309.92 745.09 309.92 745.09 M309.92 745.09 C309.92 745.09 309.92 745.09 309.92 745.09 M316.59 748.10 C317.07 745.05 320.54 741.84 320.94 740.64 M316.19 747.59 C317.88 744.57 320.46 742.01 321.84 739.99 M323.86 747.47 C324.78 742.46 332.39 741.88 334.73 732.41 M322.24 750.37 C325.13 746.65 330.11 742.42 334.13 736.08 M327.64 754.60 C334.10 745.72 336.36 744.38 345.47 730.61 M327.55 752.38 C334.06 745.94 336.78 741.08 347.31 729.16 M334.29 756.31 C344.27 743.44 353.08 734.32 361.14 723.20 M334.50 754.44 C340.13 747.69 348.08 738.91 359.31 725.68 M339.42 755.36 C347.93 746.73 356.35 741.11 370.24 717.90 M338.39 756.84 C351.15 742.54 362.96 730.19 370.85 720.54 M346.54 757.42 C358.10 744.52 371.67 732.20 383.43 715.29 M344.86 759.86 C360.24 743.40 377.11 723.47 383.74 715.75 M348.38 760.36 C364.88 745.30 375.26 731.96 394.59 707.23 M351.91 762.86 C367.09 742.72 386.27 722.99 394.88 710.50 M355.86 763.03 C369.71 751.47 377.88 734.59 409.64 702.26 M355.74 764.76 C371.50 747.05 384.58 732.15 408.91 705.59 M362.68 765.75 C378.40 746.14 394.20 727.38 420.50 700.50 M363.54 765.93 C383.66 745.09 401.16 722.20 419.79 700.85 M368.64 767.91 C377.17 753.03 392.40 742.11 424.32 701.25 M368.54 768.64 C385.37 748.88 404.48 726.62 425.17 704.04 M372.91 773.28 C392.45 751.06 410.91 731.82 433.98 705.63 M374.65 769.85 C395.38 749.68 413.17 726.86 433.24 705.67 M377.90 773.83 C403.36 748.55 425.53 722.45 436.74 708.63 M380.09 773.03 C396.93 756.01 412.57 737.34 438.91 708.84 M385.84 773.68 C412.00 750.83 430.43 725.17 445.95 712.41 M385.71 777.18 C408.00 752.22 426.52 727.16 443.95 708.95 M391.45 778.54 C409.23 754.93 430.46 733.26 448.77 709.86 M392.62 777.49 C404.54 764.37 415.58 749.73 450.21 712.38 M397.58 778.58 C410.21 767.90 418.59 753.51 457.58 715.92 M398.83 780.50 C418.69 756.71 438.98 734.67 454.19 714.59 M405.00 785.29 C415.18 770.53 430.24 753.85 463.98 716.78 M405.10 782.12 C427.80 757.81 449.97 733.65 460.59 717.99 M410.51 787.10 C432.48 762.29 451.50 736.82 465.10 721.02 M410.93 786.39 C424.50 767.86 442.24 750.36 468.64 718.70 M413.57 786.23 C431.92 770.65 449.30 751.12 471.35 721.85 M414.81 789.12 C438.21 760.73 460.12 734.72 472.08 720.69 M420.66 787.15 C435.43 772.71 449.82 757.02 476.70 725.80 M422.07 790.20 C435.22 772.06 447.84 757.03 479.17 725.26 M433.38 784.14 C452.87 762.18 469.67 741.48 485.56 724.39 M435.04 783.98 C451.14 763.34 468.65 742.82 484.14 726.58 M447.73 779.77 C461.55 758.44 482.12 739.09 491.29 730.99 M447.33 779.28 C457.34 767.75 469.12 754.40 489.82 728.95 M460.84 774.17 C474.12 760.59 485.55 744.75 496.80 730.83 M458.29 774.60 C473.80 758.05 486.25 745.01 498.05 731.93 M474.52 766.64 C481.26 757.20 494.72 744.35 504.29 734.66 M471.57 769.62 C479.94 761.45 485.70 752.11 501.51 733.58 M484.95 764.48 C491.69 758.11 499.60 747.13 507.83 734.35 M484.08 762.90 C489.30 758.33 496.12 751.71 507.75 735.14 M497.67 761.06 C501.26 752.25 509.06 747.22 516.68 739.79 M496.03 759.33 C502.77 753.98 509.16 745.89 514.18 738.74 M511.34 755.51 C514.18 748.52 513.40 745.65 519.97 740.21 M508.46 753.83 C512.81 749.86 518.49 743.86 520.77 740.87 M522.16 748.85 C523.58 747.61 524.83 745.50 526.21 744.32 M521.47 749.18 C522.45 747.06 524.10 745.77 525.75 743.64" stroke="#ffffff" stroke-width="1" fill="none" stroke-linecap="round"/>
      <path d="M419.18 699.43 C456.14 715.37 492.70 727.18 527.52 744.03 M420.20 699.58 C448.21 711.60 472.83 721.61 530.00 744.15 M528.92 744.96 C495.79 756.97 468.44 769.04 421.30 792.74 M531.28 744.17 C488.87 761.41 448.46 779.43 420.17 790.87 M417.26 791.02 C394.12 779.18 373.47 767.18 308.32 743.42 M419.41 791.32 C394.32 777.37 367.36 766.58 308.75 744.98 M311.68 747.01 C347.96 724.67 388.40 710.13 422.00 702.00 M308.91 746.22 C336.33 733.68 365.07 722.08 420.49 700.67" stroke="#334155" stroke-width="1.5" fill="none" stroke-linecap="round" stroke-linejoin="round"/>
<text x="420" y="737" font-family="Inter, 'Comic Sans MS', system-ui, sans-serif" font-size="15" font-weight="600" fill="#1e293b" text-anchor="middle" dominant-baseline="hanging"><tspan x="420" dy="0">Outcome</tspan></text>
<path d="M310.82 744.37 C281.74 762.10 252.99 780.95 220.76 799.58 M309.38 745.36 C275.37 765.29 239.55 786.57 219.55 800.25" stroke="#15803d" stroke-width="1.5" fill="none" stroke-linecap="round" stroke-linejoin="round"/>
      <path d="M220.58 799.81 C221.97 797.05 223.80 794.10 225.14 791.59 M220.24 800.27 C221.82 796.88 223.85 794.01 225.20 791.31" stroke="#15803d" stroke-width="1.5" fill="none" stroke-linecap="round" stroke-linejoin="round"/>
      <path d="M219.76 799.77 C223.62 799.21 226.88 799.51 230.38 799.10 M220.04 799.85 C222.74 799.38 226.13 799.20 230.21 798.96" stroke="#15803d" stroke-width="1.5" fill="none" stroke-linecap="round" stroke-linejoin="round"/>
<text x="255" y="753" font-family="Inter, 'Comic Sans MS', system-ui, sans-serif" font-size="12" font-weight="600" fill="#15803d" text-anchor="end" dominant-baseline="hanging"><tspan x="255" dy="0">Recovers</tspan></text>
<path d="M40.20 804.77 C40.20 804.77 40.20 804.77 40.20 804.77 M40.20 804.77 C40.20 804.77 40.20 804.77 40.20 804.77 M38.83 815.37 C43.78 812.50 45.60 807.79 48.80 805.11 M40.22 814.65 C42.01 811.58 45.32 806.97 47.64 805.74 M37.84 821.95 C42.12 816.64 44.80 817.79 53.08 804.31 M39.71 822.88 C44.22 818.13 48.06 816.21 56.59 805.86 M41.32 833.94 C49.62 821.37 55.97 813.33 66.06 804.23 M41.20 831.51 C49.65 822.56 58.13 813.37 64.79 805.17 M39.38 843.94 C49.26 833.34 59.24 823.04 72.08 807.15 M39.72 841.04 C45.81 835.01 52.36 826.82 73.43 803.34 M41.34 852.84 C50.60 839.01 57.70 832.53 80.01 805.48 M40.98 851.17 C51.50 835.85 66.55 823.66 80.61 805.79 M39.48 859.99 C57.59 840.60 76.22 816.47 89.51 802.98 M40.59 860.32 C49.88 848.58 58.52 837.94 88.12 806.10 M37.98 872.08 C58.58 849.68 73.99 825.25 97.71 807.00 M41.09 868.94 C51.59 855.79 65.49 839.03 94.76 804.96 M39.85 881.12 C63.95 851.57 92.03 819.97 100.88 802.97 M39.59 878.57 C63.15 853.19 84.47 827.56 102.88 804.29 M43.02 889.36 C63.48 865.61 81.06 838.10 110.04 804.50 M39.82 885.95 C61.72 862.17 82.00 838.25 112.22 805.56 M42.06 895.18 C67.52 866.63 96.63 834.38 121.27 803.62 M40.59 895.60 C68.91 865.72 94.52 833.21 120.32 804.89 M49.57 896.96 C78.51 861.54 105.59 826.71 129.03 805.89 M47.99 895.72 C78.25 861.77 106.35 828.68 128.06 804.38 M55.23 896.79 C73.01 876.13 91.97 860.94 135.71 803.05 M57.52 896.94 C82.97 863.87 109.55 834.73 134.45 804.47 M65.21 895.58 C88.78 869.70 109.23 846.06 145.48 805.58 M64.73 896.65 C93.14 863.19 120.44 832.38 142.39 804.26 M71.36 895.46 C101.29 863.98 130.10 832.38 151.45 804.10 M71.51 894.11 C90.17 874.15 107.99 853.39 150.66 805.00 M83.17 894.83 C106.80 868.17 128.08 837.48 160.13 804.55 M80.84 896.68 C100.95 874.30 120.67 851.68 159.43 804.72 M90.65 895.48 C115.98 863.48 140.37 834.29 167.43 806.38 M88.40 894.80 C117.12 864.51 145.02 831.99 167.91 804.43 M96.29 897.65 C115.14 874.03 138.73 850.79 174.23 807.87 M96.92 896.29 C112.70 876.75 128.55 860.22 173.79 806.52 M103.30 893.30 C126.01 870.13 145.93 848.57 182.42 803.01 M105.13 895.92 C121.31 874.02 139.01 853.87 182.53 806.05 M113.99 894.88 C129.41 875.21 147.52 855.26 190.41 807.35 M113.77 895.73 C136.60 868.05 161.55 838.86 192.37 804.09 M120.62 897.51 C140.04 873.63 161.93 847.50 198.07 806.29 M119.91 896.73 C150.12 863.10 177.23 829.47 198.43 806.39 M126.21 896.55 C151.51 870.29 172.53 845.93 207.86 803.39 M128.57 896.85 C148.50 872.41 169.91 845.96 205.78 805.99 M137.67 898.38 C166.67 859.76 193.49 827.13 215.20 805.99 M135.37 894.85 C157.54 871.54 178.47 847.34 213.44 805.26 M145.10 894.99 C173.91 857.30 205.16 823.65 224.17 802.54 M144.25 895.64 C162.30 876.50 177.63 855.10 222.31 805.87 M150.85 895.34 C171.64 869.56 197.26 848.73 228.96 802.42 M152.41 895.61 C174.08 868.39 195.73 843.53 229.95 803.86 M157.71 896.11 C182.87 872.05 200.96 849.30 238.45 803.89 M160.11 895.32 C189.69 862.90 219.71 828.22 238.93 803.84 M169.95 896.39 C198.99 863.38 227.60 831.35 246.50 805.91 M166.85 896.07 C191.33 869.45 212.49 842.46 245.99 805.63 M178.23 894.50 C197.89 866.85 222.63 839.54 253.82 807.08 M175.01 896.79 C207.43 862.12 236.66 826.62 256.26 804.69 M186.34 893.31 C207.31 869.86 233.12 842.11 260.73 806.30 M183.78 895.16 C203.07 874.83 220.24 854.75 263.96 803.97 M192.80 895.28 C215.82 870.34 237.09 841.17 269.28 804.29 M192.34 896.75 C215.30 866.87 241.30 836.73 269.20 805.70 M198.53 898.40 C230.32 856.71 262.56 825.65 275.92 804.21 M199.78 895.51 C229.54 862.46 258.15 829.61 278.40 806.48 M205.17 896.79 C229.76 867.24 256.54 837.02 287.20 805.79 M208.33 896.92 C235.38 861.54 263.27 829.59 286.89 803.98 M214.60 896.50 C231.98 871.09 252.23 852.27 293.31 802.17 M215.08 895.98 C235.75 870.83 255.86 848.36 293.86 805.11 M221.63 893.69 C252.42 864.65 281.27 831.75 302.88 805.79 M223.57 894.62 C244.84 869.95 265.22 845.44 301.32 805.70 M232.96 893.01 C262.09 857.77 293.00 826.98 308.66 802.27 M232.58 896.35 C262.49 861.98 292.73 827.86 309.85 806.02 M237.44 897.00 C270.29 860.49 301.93 826.98 316.63 804.31 M239.25 895.72 C264.55 866.97 289.47 836.44 317.61 804.56 M249.76 894.61 C270.25 867.39 293.86 837.22 322.64 806.72 M247.02 896.22 C265.32 872.08 283.88 852.36 324.18 809.10 M256.02 897.26 C270.86 877.03 288.11 861.33 324.37 817.52 M255.29 896.07 C282.95 863.90 309.21 833.33 323.60 818.79 M265.30 897.53 C283.56 874.40 302.71 847.03 325.21 823.31 M264.01 895.86 C284.46 871.67 304.80 845.68 324.34 826.06 M269.73 895.80 C287.55 876.56 304.40 857.22 322.32 835.84 M272.22 894.53 C283.88 883.52 295.93 869.24 323.96 836.55 M279.25 898.19 C295.61 879.26 309.49 862.74 322.33 845.48 M279.87 897.07 C288.03 885.99 297.83 873.19 324.09 845.10 M289.64 896.60 C298.72 880.97 308.72 873.02 325.71 852.68 M285.88 894.65 C301.70 880.65 317.56 862.49 323.87 854.56 M298.10 896.37 C301.90 885.59 307.30 880.60 322.76 864.84 M296.00 896.53 C303.35 886.24 313.14 875.87 323.57 861.62 M301.60 894.58 C306.01 890.74 315.15 880.98 325.41 874.36 M303.66 894.37 C310.58 887.20 318.80 877.64 323.48 872.59 M310.26 898.23 C315.67 893.82 314.08 886.98 323.36 878.82 M312.20 895.99 C316.32 890.63 319.61 884.71 324.02 881.54 M318.30 896.45 C321.45 892.94 321.38 891.64 322.68 891.05 M318.78 895.67 C320.45 893.94 322.65 891.87 322.87 891.02" stroke="#dcfce7" stroke-width="1" fill="none" stroke-linecap="round"/>
      <path d="M40.51 804.07 C136.36 803.91 230.75 800.43 319.84 805.70 M39.45 805.10 C110.34 804.83 178.19 803.46 320.54 805.71 M317.26 802.53 C323.50 831.77 319.30 857.23 318.77 895.75 M319.47 805.44 C319.61 835.95 320.73 868.97 319.48 894.44 M321.34 893.89 C232.87 895.65 143.85 896.18 40.67 895.84 M319.86 895.02 C239.00 893.18 159.42 893.18 40.97 894.32 M38.30 894.39 C40.66 877.63 38.23 857.71 40.88 806.54 M38.67 894.67 C41.34 867.57 39.99 838.53 39.03 805.84" stroke="#15803d" stroke-width="1.5" fill="none" stroke-linecap="round" stroke-linejoin="round"/>
<text x="180" y="819" font-family="Inter, 'Comic Sans MS', system-ui, sans-serif" font-size="13" font-weight="400" fill="#1e293b" text-anchor="middle" dominant-baseline="hanging"><tspan x="180" dy="0">&quot;Payment recovered&quot; email.</tspan><tspan x="180" dy="16.25">Banner disappears.</tspan><tspan x="180" dy="16.25">Added to &quot;Recovered&quot; list.</tspan></text>
<path d="M532.08 743.82 C562.07 765.38 591.84 783.60 617.90 801.19 M530.98 745.84 C547.75 756.51 565.01 766.38 620.16 799.37" stroke="#b91c1c" stroke-width="1.5" fill="none" stroke-linecap="round" stroke-linejoin="round"/>
      <path d="M619.70 799.67 C617.05 799.69 613.18 798.77 610.25 799.40 M620.05 799.79 C616.39 799.68 612.97 799.14 609.98 799.09" stroke="#b91c1c" stroke-width="1.5" fill="none" stroke-linecap="round" stroke-linejoin="round"/>
      <path d="M620.08 799.64 C618.72 796.83 616.28 794.09 614.29 792.10 M619.85 799.97 C618.05 797.38 616.77 794.74 614.39 791.33" stroke="#b91c1c" stroke-width="1.5" fill="none" stroke-linecap="round" stroke-linejoin="round"/>
<text x="585" y="753" font-family="Inter, 'Comic Sans MS', system-ui, sans-serif" font-size="12" font-weight="600" fill="#b91c1c" text-anchor="start" dominant-baseline="hanging"><tspan x="585" dy="0">Never</tspan><tspan x="585" dy="15">recovers</tspan></text>
<path d="M520.26 804.71 C520.26 804.71 520.26 804.71 520.26 804.71 M520.26 804.71 C520.26 804.71 520.26 804.71 520.26 804.71 M519.96 812.62 C522.55 810.32 525.40 811.46 527.96 804.40 M519.85 813.47 C523.35 811.17 525.18 808.39 527.91 804.77 M519.02 823.08 C523.91 814.81 529.57 809.42 536.01 805.89 M518.78 822.05 C525.04 815.84 530.18 810.64 535.22 805.33 M522.51 833.15 C527.09 823.30 531.98 820.55 544.61 807.84 M519.54 833.31 C526.21 826.39 531.86 819.55 543.04 805.58 M517.87 839.05 C531.55 830.88 541.08 814.83 549.86 806.12 M521.14 840.72 C532.36 829.22 542.16 816.28 551.59 804.43 M522.56 851.00 C526.49 839.59 536.14 834.25 561.87 802.05 M520.07 851.77 C530.10 837.30 540.17 825.46 559.67 805.63 M517.63 862.06 C529.98 846.08 541.30 835.56 566.67 805.57 M518.72 860.27 C530.90 847.50 540.39 836.13 566.38 805.75 M518.69 870.90 C540.50 844.74 557.92 823.93 575.85 805.94 M518.58 870.52 C535.39 850.53 551.10 834.18 575.26 804.20 M520.87 879.51 C545.46 849.79 566.85 826.75 582.94 803.17 M520.46 878.28 C533.12 861.82 549.61 843.72 582.07 805.29 M519.38 887.99 C538.63 864.58 559.82 838.27 593.68 804.22 M520.51 886.59 C536.84 866.79 555.48 846.92 593.15 806.00 M523.00 896.28 C542.90 871.56 560.21 846.66 599.14 803.97 M520.15 896.39 C548.16 864.34 576.38 829.29 599.20 803.72 M526.85 895.99 C548.76 874.85 567.91 849.91 608.64 806.39 M527.54 896.94 C543.94 876.25 562.27 856.41 607.43 806.14 M536.80 897.36 C552.24 872.32 575.55 853.76 617.27 805.58 M536.40 895.65 C554.10 879.25 570.17 858.69 615.38 805.42 M546.85 897.35 C574.42 860.56 603.65 831.16 624.33 805.03 M543.23 895.99 C574.91 864.24 602.80 831.50 622.95 805.85 M550.92 895.27 C583.24 861.70 606.87 828.40 632.12 806.14 M552.85 896.41 C571.39 872.44 588.54 850.88 631.91 805.42 M560.84 896.24 C581.07 873.23 595.02 855.08 638.70 803.24 M560.53 895.21 C589.09 864.81 616.57 832.02 640.69 804.91 M566.42 893.10 C589.81 875.05 608.70 851.26 645.60 807.54 M567.41 894.89 C593.85 867.80 619.37 836.26 647.14 805.24 M575.81 897.87 C602.82 862.49 627.95 832.11 656.11 802.95 M576.64 895.86 C601.84 863.48 628.82 833.36 654.48 805.36 M583.49 893.84 C604.27 875.68 620.46 853.68 662.95 807.38 M583.11 896.19 C605.44 875.13 623.62 852.26 662.45 806.22 M591.52 896.81 C610.71 875.52 633.22 851.38 672.27 802.41 M592.48 895.47 C622.79 859.41 654.81 824.92 670.92 804.82 M602.27 894.21 C627.31 860.44 659.57 828.43 676.78 803.98 M599.18 895.60 C630.74 861.02 660.45 825.58 678.91 804.79 M609.29 896.97 C637.21 861.47 660.60 829.90 688.64 805.03 M608.79 895.26 C630.42 869.92 649.77 846.18 685.95 803.87 M618.09 895.36 C632.97 877.36 651.17 856.39 695.86 807.06 M616.02 896.26 C645.96 861.91 676.35 825.42 693.88 804.50 M622.53 897.93 C654.76 860.63 685.37 827.38 703.67 804.95 M623.78 896.25 C643.71 876.58 660.95 855.18 702.74 804.28 M634.47 894.74 C655.16 870.70 678.75 845.10 713.36 807.28 M632.85 894.06 C660.41 866.06 687.15 834.62 709.81 803.77 M640.05 894.44 C668.39 867.73 696.75 833.72 721.52 807.05 M640.90 894.57 C658.07 874.66 676.95 853.40 719.37 805.19 M649.45 894.97 C666.46 871.68 684.18 851.03 726.78 807.48 M646.63 896.30 C663.33 878.00 679.95 859.37 727.63 806.13 M653.20 898.23 C676.37 874.65 693.35 847.26 737.08 807.73 M654.33 896.27 C680.64 865.72 704.90 838.35 734.87 804.88 M663.65 895.00 C684.63 874.17 699.10 854.35 740.40 802.58 M664.30 894.62 C692.30 864.10 720.80 829.55 742.12 804.35 M671.34 896.39 C697.38 868.44 721.39 844.20 748.00 805.49 M671.74 896.66 C691.50 873.22 712.16 850.75 751.47 804.38 M677.84 893.35 C707.18 863.15 734.39 832.64 757.23 805.30 M679.37 894.87 C700.08 871.66 719.31 849.48 757.74 804.70 M685.76 893.74 C708.43 876.32 724.04 850.63 766.73 806.08 M688.02 896.16 C707.65 870.51 729.39 846.76 765.57 805.59 M694.70 896.80 C726.64 863.61 755.37 825.51 775.86 803.67 M694.69 896.41 C723.36 864.36 749.92 833.09 775.63 805.51 M705.72 892.84 C720.65 874.57 739.32 855.54 783.08 803.14 M703.21 895.63 C729.85 863.30 758.89 832.79 782.18 804.56 M714.06 897.49 C735.25 868.20 758.17 840.78 788.01 803.48 M710.67 895.79 C728.71 876.43 744.37 856.66 789.80 804.63 M716.82 897.21 C751.03 863.75 775.37 829.16 795.40 803.89 M718.55 895.44 C743.57 867.38 766.63 839.71 797.05 804.52 M728.14 894.76 C752.75 867.25 778.09 835.47 803.08 809.45 M727.52 895.98 C742.41 878.84 756.55 861.30 801.82 812.72 M733.84 896.90 C756.02 866.99 778.49 844.81 799.25 819.32 M734.79 896.43 C755.36 871.87 776.16 848.61 800.76 821.53 M745.76 892.67 C762.14 872.55 780.50 848.82 803.17 830.59 M742.87 894.12 C766.08 868.60 789.05 842.26 799.71 829.30 M753.49 894.11 C762.39 881.96 777.89 869.30 801.89 838.95 M751.14 896.10 C770.52 875.13 788.68 852.21 800.21 838.21 M761.86 897.66 C774.24 877.02 791.98 858.27 801.48 847.33 M759.06 894.56 C766.91 885.47 775.74 876.10 800.87 847.65 M767.40 895.12 C778.74 885.94 788.90 873.26 799.90 857.91 M765.64 896.01 C777.35 883.61 788.29 873.10 800.42 857.41 M776.74 892.88 C782.25 882.46 795.89 872.45 802.06 866.95 M775.87 895.79 C780.38 888.06 786.05 881.99 799.31 866.81 M785.36 892.98 C791.10 887.10 795.31 881.57 798.34 873.66 M783.00 894.16 C789.04 889.92 793.82 884.48 799.94 875.16 M792.87 896.90 C795.55 892.62 799.24 887.57 801.42 885.89 M791.84 895.26 C793.86 893.68 795.63 890.32 799.98 884.10 M798.54 895.67 C799.12 895.52 799.76 894.36 800.69 893.95 M799.00 896.00 C799.18 894.97 800.02 894.46 800.84 893.36" stroke="#fee2e2" stroke-width="1" fill="none" stroke-linecap="round"/>
      <path d="M521.64 803.57 C618.16 804.48 720.29 808.15 801.58 807.14 M520.88 805.53 C592.26 806.96 664.12 806.99 798.94 804.92 M801.21 805.71 C801.85 834.05 800.65 860.06 801.84 893.77 M800.47 803.90 C801.27 836.57 799.77 867.67 798.79 895.80 M800.49 896.30 C741.24 892.63 687.25 890.91 518.34 893.59 M800.17 894.02 C705.45 891.91 610.90 892.07 520.76 895.79 M520.52 897.37 C520.70 872.15 521.44 850.98 519.77 806.09 M521.23 895.92 C518.78 862.06 520.53 826.87 520.38 806.00" stroke="#b91c1c" stroke-width="1.5" fill="none" stroke-linecap="round" stroke-linejoin="round"/>
<text x="660" y="819" font-family="Inter, 'Comic Sans MS', system-ui, sans-serif" font-size="13" font-weight="400" fill="#1e293b" text-anchor="middle" dominant-baseline="hanging"><tspan x="660" dy="0">Cancel subscription.</tspan><tspan x="660" dy="16.25">&quot;Subscription paused&quot; email.</tspan><tspan x="660" dy="16.25">Added to &quot;Access revoked&quot; list.</tspan></text>
  </g>
</svg>
